<?xml version="1.0" encoding="UTF-8"?>
<svg xmlns="http://www.w3.org/2000/svg" xmlns:xlink="http://www.w3.org/1999/xlink" width="130px" height="130px" viewBox="0 0 130 130" version="1.1">
<g id="surface1">
<path style=" stroke:none;fill-rule:nonzero;fill:rgb(98.039216%,82.352941%,30.196078%);fill-opacity:1;" d="M 130 65 C 130 100.898438 100.898438 130 65 130 C 29.101562 130 0 100.898438 0 65 C 0 29.101562 29.101562 0 65 0 C 100.898438 0 130 29.101562 130 65 Z M 130 65 "/>
<path style=" stroke:none;fill-rule:nonzero;fill:rgb(92.941176%,72.54902%,21.568627%);fill-opacity:1;" d="M 111.28125 107.058594 C 111.28125 105.042969 90.5625 103.410156 65 103.410156 C 39.4375 103.410156 18.71875 105.042969 18.71875 107.058594 C 18.71875 109.074219 39.4375 110.707031 65 110.707031 C 90.5625 110.707031 111.28125 109.074219 111.28125 107.058594 Z M 111.28125 107.058594 "/>
<path style=" stroke:none;fill-rule:nonzero;fill:rgb(40%,40%,40%);fill-opacity:1;" d="M 16.753906 17.066406 L 113.246094 17.066406 C 116.417969 17.066406 119.011719 19.664062 119.011719 22.832031 L 119.011719 82.273438 L 10.988281 82.273438 L 10.988281 22.832031 C 10.988281 19.660156 13.582031 17.066406 16.753906 17.066406 Z M 16.753906 17.066406 "/>
<path style=" stroke:none;fill-rule:nonzero;fill:rgb(100%,100%,100%);fill-opacity:1;" d="M 14.902344 78.359375 L 115.097656 78.359375 L 115.097656 22.832031 C 115.097656 21.820312 114.257812 20.980469 113.246094 20.980469 L 16.753906 20.980469 C 15.742188 20.980469 14.902344 21.820312 14.902344 22.832031 Z M 14.902344 78.359375 "/>
<path style=" stroke:none;fill-rule:nonzero;fill:rgb(100%,100%,100%);fill-opacity:1;" d="M 119.011719 82.273438 L 119.011719 88.578125 C 119.011719 91.746094 116.152344 94.339844 112.65625 94.339844 L 17.34375 94.339844 C 13.847656 94.339844 10.988281 91.746094 10.988281 88.578125 L 10.988281 82.273438 Z M 119.011719 82.273438 "/>
<path style=" stroke:none;fill-rule:nonzero;fill:rgb(71.372549%,71.372549%,72.156863%);fill-opacity:1;" d="M 66.984375 88.054688 C 66.984375 89.152344 66.097656 90.039062 65 90.039062 C 63.902344 90.039062 63.015625 89.152344 63.015625 88.054688 C 63.015625 86.960938 63.902344 86.070312 65 86.070312 C 66.097656 86.070312 66.984375 86.960938 66.984375 88.054688 Z M 66.984375 88.054688 "/>
<path style=" stroke:none;fill-rule:nonzero;fill:rgb(76.078431%,76.078431%,76.862745%);fill-opacity:1;" d="M 77.457031 103.410156 L 86.621094 106.347656 L 43.375 106.347656 L 50.769531 103.410156 L 50.769531 94.339844 L 77.457031 94.339844 Z M 77.457031 103.410156 "/>
<path style=" stroke:none;fill-rule:nonzero;fill:rgb(92.54902%,94.117647%,94.509804%);fill-opacity:1;" d="M 50.769531 103.410156 L 77.457031 103.410156 L 86.625 106.347656 L 86.625 107.609375 L 43.375 107.609375 L 43.375 106.347656 Z M 50.769531 103.410156 "/>
<path style=" stroke:none;fill-rule:nonzero;fill:rgb(56.862745%,56.862745%,56.862745%);fill-opacity:1;" d="M 50.769531 94.339844 L 77.457031 94.339844 L 77.457031 103.410156 Z M 50.769531 94.339844 "/>
<path style=" stroke:none;fill-rule:nonzero;fill:rgb(12.54902%,81.568627%,76.078431%);fill-opacity:1;" d="M 19.257812 24.757812 L 29.601562 24.757812 L 29.601562 26.539062 L 19.257812 26.539062 Z M 19.257812 24.757812 "/>
<path style=" stroke:none;fill-rule:nonzero;fill:rgb(100%,35.686275%,38.431373%);fill-opacity:1;" d="M 30.800781 24.757812 L 49.148438 24.757812 L 49.148438 26.539062 L 30.800781 26.539062 Z M 30.800781 24.757812 "/>
<path style=" stroke:none;fill-rule:nonzero;fill:rgb(98.039216%,82.352941%,30.196078%);fill-opacity:1;" d="M 50.035156 24.757812 L 65.65625 24.757812 L 65.65625 26.539062 L 50.035156 26.539062 Z M 50.035156 24.757812 "/>
<path style=" stroke:none;fill-rule:nonzero;fill:rgb(98.039216%,82.352941%,30.196078%);fill-opacity:1;" d="M 30.125 32.085938 L 35.613281 32.085938 L 35.613281 33.867188 L 30.125 33.867188 Z M 30.125 32.085938 "/>
<path style=" stroke:none;fill-rule:nonzero;fill:rgb(100%,35.686275%,38.431373%);fill-opacity:1;" d="M 36.246094 32.085938 L 45.984375 32.085938 L 45.984375 33.867188 L 36.246094 33.867188 Z M 36.246094 32.085938 "/>
<path style=" stroke:none;fill-rule:nonzero;fill:rgb(12.54902%,81.568627%,76.078431%);fill-opacity:1;" d="M 46.453125 32.085938 L 54.742188 32.085938 L 54.742188 33.867188 L 46.453125 33.867188 Z M 46.453125 32.085938 "/>
<path style=" stroke:none;fill-rule:nonzero;fill:rgb(12.54902%,81.568627%,76.078431%);fill-opacity:1;" d="M 19.191406 35.214844 L 28.835938 35.214844 L 28.835938 36.996094 L 19.191406 36.996094 Z M 19.191406 35.214844 "/>
<path style=" stroke:none;fill-rule:nonzero;fill:rgb(98.039216%,82.352941%,30.196078%);fill-opacity:1;" d="M 29.949219 35.214844 L 47.046875 35.214844 L 47.046875 36.996094 L 29.949219 36.996094 Z M 29.949219 35.214844 "/>
<path style=" stroke:none;fill-rule:nonzero;fill:rgb(100%,35.686275%,38.431373%);fill-opacity:1;" d="M 29.488281 38.953125 L 39.128906 38.953125 L 39.128906 40.734375 L 29.488281 40.734375 Z M 29.488281 38.953125 "/>
<path style=" stroke:none;fill-rule:nonzero;fill:rgb(12.54902%,81.568627%,76.078431%);fill-opacity:1;" d="M 40.242188 38.953125 L 57.339844 38.953125 L 57.339844 40.734375 L 40.242188 40.734375 Z M 40.242188 38.953125 "/>
<path style=" stroke:none;fill-rule:nonzero;fill:rgb(98.039216%,82.352941%,30.196078%);fill-opacity:1;" d="M 20.910156 42.53125 L 30.554688 42.53125 L 30.554688 44.3125 L 20.910156 44.3125 Z M 20.910156 42.53125 "/>
<path style=" stroke:none;fill-rule:nonzero;fill:rgb(12.54902%,81.568627%,76.078431%);fill-opacity:1;" d="M 31.828125 42.53125 L 38.730469 42.53125 L 38.730469 44.3125 L 31.828125 44.3125 Z M 31.828125 42.53125 "/>
<path style=" stroke:none;fill-rule:nonzero;fill:rgb(100%,35.686275%,38.431373%);fill-opacity:1;" d="M 40.351562 42.53125 L 59.730469 42.53125 L 59.730469 44.3125 L 40.351562 44.3125 Z M 40.351562 42.53125 "/>
<path style=" stroke:none;fill-rule:nonzero;fill:rgb(12.54902%,81.568627%,76.078431%);fill-opacity:1;" d="M 61.148438 42.53125 L 68.046875 42.53125 L 68.046875 44.3125 L 61.148438 44.3125 Z M 61.148438 42.53125 "/>
<path style=" stroke:none;fill-rule:nonzero;fill:rgb(12.54902%,81.568627%,76.078431%);fill-opacity:1;" d="M 18.851562 46.269531 L 44.652344 46.269531 L 44.652344 48.050781 L 18.851562 48.050781 Z M 18.851562 46.269531 "/>
<path style=" stroke:none;fill-rule:nonzero;fill:rgb(98.039216%,82.352941%,30.196078%);fill-opacity:1;" d="M 45.777344 46.269531 L 52.679688 46.269531 L 52.679688 48.050781 L 45.777344 48.050781 Z M 45.777344 46.269531 "/>
<path style=" stroke:none;fill-rule:nonzero;fill:rgb(100%,35.686275%,38.431373%);fill-opacity:1;" d="M 53.664062 46.269531 L 63.304688 46.269531 L 63.304688 48.050781 L 53.664062 48.050781 Z M 53.664062 46.269531 "/>
<path style=" stroke:none;fill-rule:nonzero;fill:rgb(100%,100%,100%);fill-opacity:1;" d="M 30.5625 28.207031 L 31.277344 28.207031 L 31.277344 30.34375 L 30.5625 30.34375 Z M 30.5625 28.207031 "/>
<path style=" stroke:none;fill-rule:nonzero;fill:rgb(100%,100%,100%);fill-opacity:1;" d="M 49.054688 35.214844 L 49.765625 35.214844 L 49.765625 37.351562 L 49.054688 37.351562 Z M 49.054688 35.214844 "/>
<path style=" stroke:none;fill-rule:nonzero;fill:rgb(12.54902%,81.568627%,76.078431%);fill-opacity:1;" d="M 19.257812 51.542969 L 29.601562 51.542969 L 29.601562 53.324219 L 19.257812 53.324219 Z M 19.257812 51.542969 "/>
<path style=" stroke:none;fill-rule:nonzero;fill:rgb(100%,35.686275%,38.431373%);fill-opacity:1;" d="M 30.800781 51.542969 L 49.148438 51.542969 L 49.148438 53.324219 L 30.800781 53.324219 Z M 30.800781 51.542969 "/>
<path style=" stroke:none;fill-rule:nonzero;fill:rgb(98.039216%,82.352941%,30.196078%);fill-opacity:1;" d="M 50.035156 51.542969 L 65.65625 51.542969 L 65.65625 53.324219 L 50.035156 53.324219 Z M 50.035156 51.542969 "/>
<path style=" stroke:none;fill-rule:nonzero;fill:rgb(98.039216%,82.352941%,30.196078%);fill-opacity:1;" d="M 30.125 58.867188 L 35.613281 58.867188 L 35.613281 60.648438 L 30.125 60.648438 Z M 30.125 58.867188 "/>
<path style=" stroke:none;fill-rule:nonzero;fill:rgb(100%,35.686275%,38.431373%);fill-opacity:1;" d="M 36.246094 58.867188 L 45.984375 58.867188 L 45.984375 60.648438 L 36.246094 60.648438 Z M 36.246094 58.867188 "/>
<path style=" stroke:none;fill-rule:nonzero;fill:rgb(12.54902%,81.568627%,76.078431%);fill-opacity:1;" d="M 46.453125 58.867188 L 54.742188 58.867188 L 54.742188 60.648438 L 46.453125 60.648438 Z M 46.453125 58.867188 "/>
<path style=" stroke:none;fill-rule:nonzero;fill:rgb(12.54902%,81.568627%,76.078431%);fill-opacity:1;" d="M 19.191406 62 L 28.835938 62 L 28.835938 63.78125 L 19.191406 63.78125 Z M 19.191406 62 "/>
<path style=" stroke:none;fill-rule:nonzero;fill:rgb(98.039216%,82.352941%,30.196078%);fill-opacity:1;" d="M 29.949219 62 L 47.046875 62 L 47.046875 63.78125 L 29.949219 63.78125 Z M 29.949219 62 "/>
<path style=" stroke:none;fill-rule:nonzero;fill:rgb(100%,100%,100%);fill-opacity:1;" d="M 30.5625 54.992188 L 31.277344 54.992188 L 31.277344 57.128906 L 30.5625 57.128906 Z M 30.5625 54.992188 "/>
<path style=" stroke:none;fill-rule:nonzero;fill:rgb(100%,100%,100%);fill-opacity:1;" d="M 49.054688 62 L 49.765625 62 L 49.765625 64.136719 L 49.054688 64.136719 Z M 49.054688 62 "/>
<path style=" stroke:none;fill-rule:nonzero;fill:rgb(86.27451%,89.019608%,85.882353%);fill-opacity:1;" d="M 73.6875 24.757812 L 111.101562 24.757812 L 111.101562 33.382812 L 73.6875 33.382812 Z M 73.6875 24.757812 "/>
<path style=" stroke:none;fill-rule:nonzero;fill:rgb(86.27451%,89.019608%,85.882353%);fill-opacity:1;" d="M 73.6875 34.605469 L 91.507812 34.605469 L 91.507812 45.996094 L 73.6875 45.996094 Z M 73.6875 34.605469 "/>
<path style=" stroke:none;fill-rule:nonzero;fill:rgb(86.27451%,89.019608%,85.882353%);fill-opacity:1;" d="M 93.285156 34.605469 L 111.101562 34.605469 L 111.101562 45.996094 L 93.285156 45.996094 Z M 93.285156 34.605469 "/>
<path style=" stroke:none;fill-rule:nonzero;fill:rgb(86.27451%,89.019608%,85.882353%);fill-opacity:1;" d="M 73.738281 47.628906 L 111.050781 47.628906 L 111.050781 48.179688 L 73.738281 48.179688 Z M 73.738281 52.839844 L 98.25 52.839844 L 98.25 53.394531 L 73.738281 53.394531 Z M 73.738281 51.101562 L 111.050781 51.101562 L 111.050781 51.65625 L 73.738281 51.65625 Z M 73.738281 49.367188 L 111.050781 49.367188 L 111.050781 49.917969 L 73.738281 49.917969 Z M 73.738281 49.367188 "/>
<path style=" stroke:none;fill-rule:nonzero;fill:rgb(86.27451%,89.019608%,85.882353%);fill-opacity:1;" d="M 73.644531 54.746094 L 84.765625 54.746094 L 84.765625 65.773438 L 73.644531 65.773438 Z M 100.027344 54.746094 L 111.148438 54.746094 L 111.148438 65.773438 L 100.027344 65.773438 Z M 86.835938 54.746094 L 97.957031 54.746094 L 97.957031 65.773438 L 86.835938 65.773438 Z M 86.835938 54.746094 "/>
<path style=" stroke:none;fill-rule:nonzero;fill:rgb(86.27451%,89.019608%,85.882353%);fill-opacity:1;" d="M 73.738281 67.308594 L 111.050781 67.308594 L 111.050781 67.859375 L 73.738281 67.859375 Z M 73.738281 72.519531 L 98.25 72.519531 L 98.25 73.074219 L 73.738281 73.074219 Z M 73.738281 70.785156 L 111.050781 70.785156 L 111.050781 71.335938 L 73.738281 71.335938 Z M 73.738281 69.046875 L 111.050781 69.046875 L 111.050781 69.597656 L 73.738281 69.597656 Z M 73.738281 69.046875 "/>
</g>
</svg>
