<?xml version="1.0" encoding="utf-8"?>
<!-- Generator: Adobe Illustrator 27.5.0, SVG Export Plug-In . SVG Version: 6.00 Build 0)  -->
<svg version="1.1" id="Layer_1" xmlns="http://www.w3.org/2000/svg" xmlns:xlink="http://www.w3.org/1999/xlink" x="0px" y="0px"
	 viewBox="0 0 2843 2000" style="enable-background:new 0 0 2843 2000;" xml:space="preserve">
<g>
	<g>
		<g>
			<rect x="-0.001" style="fill:#FFFFFF;" width="2843" height="2000"/>
		</g>
	</g>
	<g>
		<g>
			<path style="fill:#F7CC7F;" d="M1954.611,553.212c-36.998,145.591,51.349,294.138,196.939,331.136
				c145.591,36.998,294.139-51.349,331.136-196.939c36.998-145.591-51.349-294.138-196.939-331.136
				C2140.156,319.275,1991.609,407.621,1954.611,553.212z M2021.898,561.105L2021.898,561.105
				c32.698-108.662,147.293-170.244,255.955-137.545h0.001c108.662,32.698,170.243,147.293,137.545,255.956v0
				c-32.698,108.662-147.294,170.243-255.956,137.545l0,0C2050.781,784.362,1989.2,669.767,2021.898,561.105z"/>
			<path style="fill:#F7CC7F;" d="M1765.834,553.634c1.283,6.506,7.171,8.778,21.704,14.543
				c25.996,10.311,52.004,20.626,77.615,31.837c4.03,1.764,8.062,8.045,8.56,12.623c2.961,27.215,4.277,54.615,7.514,81.789
				c1.004,8.422,0.184,12.9-7.384,17.654c-30.251,19.009-59.971,38.865-89.559,58.192c7.398,31.727,44.661,103.038,64.58,122.98
				c31.378-13.202,63.642-26.206,95.346-40.455c9.867-4.434,14.909-3.582,23.133,4.279c19.077,18.237,39.88,34.787,60.895,50.826
				c8.509,6.495,13.043,11.585,10.285,23.286c-7.148,30.33-12.454,61.088-19.091,91.546c-1.784,8.186-0.227,13.305,7.855,15.807
				c38.024,11.771,76.063,23.489,114.092,35.249c9.348,2.891,10.788-4.796,13.123-10.303c11.813-27.859,23.783-55.671,34.652-83.902
				c4.081-10.601,9.551-14.089,21.066-14.45c30.476-0.955,60.889-3.898,93.665-6.215c19.388,29.436,40.793,61.934,62.796,95.34
				c44.168-14.627,83.949-36.526,121.622-65.49c-14.92-35.848-29.845-71.707-42.998-103.309
				c22.563-28.581,44.048-54.591,63.95-81.76c5.761-7.864,10.275-9.158,18.921-7.259c30.003,6.59,60.211,12.245,90.263,18.629
				c6.496,1.38,11.262,1.631,14.59-5.467c16.814-35.865,30.383-72.662,35.858-112.211c1.221-8.816-1.943-12.296-9.206-15.296
				c-29.233-12.074-58.236-24.708-87.518-36.662c-7.094-2.896-10.063-5.905-10.707-14.558c-2.234-30.014-5.766-59.969-10.057-89.766
				c-1.096-7.612,1.322-10.572,6.68-14.1c29.85-19.66,59.554-39.54,90.071-59.853c-15.484-43.472-35.232-83.824-63.521-120.928
				c-36.566,15.219-72.896,30.338-107.663,44.807c-29.294-24.298-57.657-47.825-88.008-72.999
				c5.377-26.832,11.797-57.699,17.694-88.666c4.841-25.415,8.483-22.073-17.049-32.789c-2.437-1.022-4.502-2.929-6.74-4.425
				c-22.837-6.872-45.674-13.744-68.511-20.616c-5.338-0.605-10.938-0.384-15.964-1.976c-13.074-4.143-20.436-1.171-25.645,12.832
				c-10.854,29.177-23.544,57.689-36.163,86.172c-1.652,3.73-7.081,7.621-11.178,8.139c-26.724,3.381-53.813,4.455-80.255,9.219
				c-12.938,2.331-18.382-1.205-24.765-11.291c-18.106-28.608-37.389-56.47-58.099-87.454
				c-40.965,21.508-80.925,42.49-121.335,63.708c3.174,8.053,4.926,12.717,6.84,17.314c11.805,28.35,23.354,56.813,35.662,84.943
				c3.495,7.988,1.715,12.478-3.754,18.976c-18.791,22.33-36.144,45.866-54.785,68.327c-2.892,3.483-10.036,5.931-14.568,5.143
				c-24.818-4.312-49.394-9.995-74.131-14.802c-20.015-3.889-27.461-5.263-33.799,1.273L1765.834,553.634z M1945.256,550.834
				c18.558-73.026,64.442-134.455,129.201-172.969c64.76-38.515,140.642-49.506,213.667-30.949
				c73.026,18.558,134.455,64.442,172.97,129.202c38.516,64.76,49.506,140.642,30.949,213.668
				c-18.558,73.026-64.442,134.455-129.202,172.969c-64.76,38.515-140.642,49.506-213.668,30.948
				c-73.025-18.558-134.454-64.442-172.969-129.201C1937.688,699.742,1926.698,623.861,1945.256,550.834z"/>
		</g>
		<path style="fill:#50BFA5;" d="M226.67,930.627c4.199,3.276,8.969,1.56,20.824-2.579c21.206-7.405,42.422-14.814,63.867-21.47
			c3.375-1.047,9.125,0.648,11.833,3.166c16.105,14.969,31.309,30.915,47.56,45.714c5.037,4.587,6.893,7.736,4.797,14.602
			c-8.377,27.446-15.985,55.125-23.791,82.416c21.171,15.376,81.286,39.09,103.865,40.727c12.113-24.512,24.869-49.368,36.63-74.688
			c3.661-7.88,7.169-10.013,16.295-9.563c21.172,1.045,42.504,0.159,63.696-1.149c8.581-0.529,14.01,0.179,18.487,8.733
			c11.604,22.175,24.551,43.642,36.533,65.625c3.22,5.908,6.857,8.198,13.08,5.469c29.277-12.842,58.536-25.723,87.809-38.573
			c7.196-3.159,4.03-8.584,2.553-13.154c-7.473-23.127-14.825-46.309-23.065-69.165c-3.094-8.582-1.607-13.576,5.196-19.85
			c18.003-16.601,34.924-34.375,53.608-53.013c27.247,7.682,57.33,16.163,88.252,24.881c19.13-32.1,31.774-66.311,39.424-103.703
			c-27.905-13.924-55.819-27.854-80.419-40.128c-1.324-29.217-1.951-56.305-4.149-83.265c-0.636-7.804,1.425-10.963,7.673-14.354
			c21.684-11.771,43-24.217,64.603-36.139c4.67-2.577,7.697-4.93,5.986-10.989c-8.644-30.618-19.749-60.095-37.214-86.988
			c-3.894-5.995-7.644-6.445-13.631-4.448c-24.099,8.036-48.352,15.611-72.416,23.745c-5.83,1.971-9.215,1.705-14.154-3.211
			c-17.135-17.051-35.027-33.384-53.296-49.222c-4.668-4.046-4.755-7.115-3.357-12.074c7.79-27.629,15.377-55.316,23.23-83.694
			c-32.256-18.258-65.46-32.379-102.143-40.038c-14.204,28.464-28.316,56.744-41.821,83.806c-30.562,0.646-60.152,1.27-91.816,1.939
			c-10.841-19.12-23.17-41.238-35.868-63.142c-10.421-17.978-6.453-17.863-27.59-10.948c-2.017,0.66-4.273,0.588-6.419,0.856
			c-17.48,7.833-34.96,15.665-52.439,23.497c-3.56,2.44-6.844,5.518-10.732,7.192c-10.117,4.357-13.024,10.032-8.827,21.273
			c8.747,23.423,16.031,47.408,23.341,71.337c0.958,3.135-0.293,8.351-2.509,10.819c-14.45,16.101-30.335,30.995-43.887,47.787
			c-6.631,8.217-11.795,8.932-20.974,6.163c-26.033-7.852-52.39-14.635-81.253-22.562c-13.568,34.596-26.803,68.343-40.186,102.471
			c6.161,3.221,9.676,5.132,13.255,6.917c22.072,11.009,44.047,22.222,66.309,32.833c6.322,3.013,7.601,6.676,7.697,13.497
			c0.328,23.438,2.164,46.851,2.652,70.291c0.076,3.635-2.977,8.877-6.143,10.781c-17.337,10.429-35.247,19.897-52.796,29.982
			c-14.197,8.16-19.441,11.24-19.854,18.541L226.67,930.627z M334.149,834.606c-27.121-54.099-31.551-115.522-12.475-172.953
			c19.076-57.431,59.376-103.996,113.475-131.117c54.099-27.121,115.521-31.551,172.953-12.475
			c57.431,19.077,103.996,59.376,131.117,113.475c27.121,54.099,31.551,115.521,12.474,172.953
			c-19.077,57.431-59.377,103.996-113.476,131.117c-54.099,27.121-115.521,31.551-172.952,12.474
			C407.834,929.005,361.27,888.705,334.149,834.606z"/>
		<path style="fill:#F7CC7F;" d="M546.721,316.671l8.618-15.819l-8.109-16.088c-0.923-1.832,0.649-3.931,2.661-3.552l17.665,3.331
			l12.751-12.706c1.452-1.447,3.928-0.596,4.19,1.44l2.3,17.878l15.989,8.235c1.821,0.938,1.779,3.563-0.071,4.442l-16.244,7.719
			l-2.869,17.795c-0.327,2.027-2.829,2.798-4.234,1.305l-12.339-13.108l-17.762,2.763
			C547.245,320.621,545.74,318.472,546.721,316.671z"/>
		<path style="fill:#07345A;" d="M1229.909,355.665l7.358-11.951l-5.909-2.396c-1.293-0.524-1.916-1.998-1.392-3.29l0,0
			c0.524-1.293,1.998-1.917,3.291-1.392l6.814,2.763l6.578-10.733l-6.311-2.559c-1.293-0.524-1.916-1.998-1.392-3.291l0,0
			c0.524-1.293,1.998-1.916,3.291-1.392l7.216,2.926l7.64-12.29c0.649-1.044,1.956-1.47,3.095-1.008l1.102,0.447
			c1.446,0.586,2.02,2.331,1.205,3.661l-7.105,11.597l10.463,4.243l7.639-12.29c0.649-1.044,1.956-1.469,3.095-1.007l1.203,0.487
			c1.446,0.587,2.02,2.331,1.205,3.661l-7.105,11.597l5.909,2.397c1.293,0.524,1.916,1.997,1.392,3.291l0,0
			c-0.524,1.293-1.997,1.916-3.29,1.392l-6.814-2.763l-6.478,10.772l6.312,2.56c1.292,0.524,1.916,1.998,1.392,3.291l0,0
			c-0.524,1.293-1.998,1.916-3.291,1.392l-7.216-2.927l-7.804,12.674c-0.646,1.051-1.958,1.48-3.101,1.017l-1.288-0.523
			c-1.448-0.587-2.021-2.335-1.202-3.665l7.358-11.951l-10.463-4.243l-7.804,12.674c-0.646,1.05-1.958,1.48-3.101,1.017
			l-1.288-0.522C1229.663,358.743,1229.09,356.996,1229.909,355.665z M1256.57,346.09l6.578-10.732l-10.463-4.243l-6.578,10.732
			L1256.57,346.09z"/>
		<path style="fill:#F47458;" d="M430.762,1141.195l-32.794,42.742c-0.469,2.775,1.525,4.562,6.426,9.034
			c8.766,8.001,17.536,16.004,26.014,24.304c1.335,1.306,1.989,4.404,1.499,6.296c-2.917,11.244-6.514,22.316-9.315,33.586
			c-0.868,3.493-1.866,5.146-5.584,5.896c-14.863,2.995-29.642,6.406-44.289,9.628c-1.834,13.703,2.232,47.604,7.139,58.512
			c14.437-0.521,29.195-0.831,43.918-1.719c4.583-0.276,6.455,0.819,8.537,5.176c4.829,10.105,10.596,19.801,16.523,29.325
			c2.4,3.855,3.435,6.558,0.581,10.787c-7.396,10.961-14.126,22.369-21.339,33.457c-1.939,2.981-2.09,5.246,0.741,7.454
			c13.319,10.388,26.653,20.757,39.976,31.142c3.275,2.553,5.002-0.281,6.757-2.115c8.876-9.28,17.808-18.518,26.365-28.086
			c3.213-3.593,5.908-4.155,10.533-2.567c12.237,4.203,24.749,7.608,38.104,11.616c3.268,14.596,6.877,30.711,10.586,47.275
			c19.726,0.836,38.805-1.874,58.109-7.704c-0.531-16.468-1.063-32.942-1.531-47.46c13.251-7.95,25.687-15.042,37.67-22.831
			c3.468-2.255,5.454-2.089,8.6-0.036c10.916,7.127,22.053,13.912,33.018,20.963c2.371,1.524,4.225,2.341,6.612,0.024
			c12.065-11.704,22.982-24.267,31.1-39.138c1.81-3.314,1.078-5.172-1.354-7.453c-9.785-9.188-19.395-18.562-29.217-27.707
			c-2.38-2.216-3.106-3.857-2.061-7.387c3.626-12.246,6.728-24.664,9.505-37.135c0.71-3.186,2.114-3.996,4.771-4.591
			c14.801-3.313,29.578-6.737,44.742-10.209c0.391-19.579-1.379-38.562-7.027-57.538c-16.799,0.541-33.489,1.079-49.461,1.594
			c-7.972-14.047-15.69-27.646-23.95-42.199c6.168-9.84,13.356-21.124,20.353-32.526c5.742-9.358,6.685-7.483-1.836-15.575
			c-0.813-0.771-1.346-1.839-2.009-2.77c-8.029-6.16-16.059-12.32-24.088-18.48c-2.027-1.043-4.283-1.797-6.038-3.184
			c-4.565-3.61-7.934-3.537-12.106,1.236c-8.694,9.946-18.016,19.354-27.306,28.759c-1.217,1.232-3.956,1.96-5.66,1.549
			c-11.113-2.676-22.024-6.322-33.233-8.407c-5.485-1.02-7.113-3.241-8.13-8.204c-2.884-14.074-6.347-28.03-9.907-43.439
			c-19.49,2.377-38.502,4.695-57.729,7.039c0.049,3.674,0.043,5.787,0.112,7.899c0.422,13.025,0.726,26.057,1.381,39.07
			c0.186,3.695-1.196,5.21-4.343,6.966c-10.814,6.037-21.239,12.768-32.013,18.878c-1.671,0.947-4.874,0.845-6.555-0.149
			c-9.2-5.442-18.098-11.392-27.192-17.02C437.008,1141.219,434.26,1139.555,430.762,1141.195z M498.46,1225.4
			c29.313-38.205,84.046-45.413,122.251-16.1l0,0c38.205,29.313,45.413,84.046,16.101,122.251l0,0
			c-29.313,38.205-84.046,45.414-122.251,16.102v-0.001C476.355,1318.339,469.147,1263.605,498.46,1225.4L498.46,1225.4z"/>
		<polygon style="fill:#355389;" points="977.238,234.951 1008.585,238.733 995.208,214.396 		"/>
		<g>
			<path style="fill:#F47458;" d="M1151.111,573.147c-0.98,10.591,8.126,20.273,18.227,22.041
				c10.462,1.83,19.786-4.988,23.384-14.626c7.099-19.014-13.705-34.011-24.987-22.507c-10.533,10.74-7.202,26.697,4.167,26.703
				c4.289,0.001,11.192-3.595,8.455-8.795c-0.613-1.165-2.342-1.081-2.977,0c-1.38,2.35-1.269,2.435-1.922,2.959
				c-1.024,0.823-2.446,1.098-3.725,1.076c-11.577-0.197-3.88-26.688,9.769-20.271c7.494,3.523,9.704,12.046,7.104,19.484
				c-2.504,7.162-9.22,12.711-16.991,12.212c-9.281-0.595-17.066-9.129-17.667-18.274
				C1153.827,571.303,1151.279,571.332,1151.111,573.147L1151.111,573.147z"/>
		</g>
		<g>
			<g>
				<path style="fill:#50BFA5;" d="M1768.175,254.626l9.372,4.025c0,0,15.649-3.493,17.397-6.433
					c1.749-2.939,2.771-10.368,4.957-10.372c2.187-0.004,6.327,1.08,6.918,6.282c0.429,3.776-5.917,13.995-5.151,15.215
					c0.479,0.764,5.801,3.229,9.718,4.967c2.576,1.143,4.302,3.624,4.485,6.443l0.001,0.008c0.125,1.905-1.098,3.638-2.931,4.155
					l-2.853,0.804l0.657,2.91c0.489,2.167-0.857,4.323-3.015,4.828l-2.199,0.514l0.547,1.786c0.705,2.3-0.738,4.704-3.096,5.155
					l-1.914,0.367l0.038,0.502c0.155,2.089-1.306,3.951-3.367,4.289l-1.897,0.311l-24.96-10.723
					c-2.339-1.004-4.447-2.477-6.198-4.33l-8.156-5.227c-0.877-0.562-1.212-1.682-0.788-2.635l9.688-21.764
					C1765.896,254.652,1767.119,254.173,1768.175,254.626z"/>
			</g>
		</g>
		<g>
			<path style="fill:#5184CE;" d="M1545.324,627.409h-169.39c-17.336,0-31.391,14.054-31.391,31.391v55.498
				c0,17.336,14.054,31.391,31.391,31.391h169.39c17.336,0,31.391-14.054,31.391-31.391V658.8
				C1576.715,641.463,1562.66,627.409,1545.324,627.409z"/>
			<polygon style="fill:#466EB6;" points="1320.924,1793.344 1141.517,1876.036 1141.517,1894.354 1780.446,1894.354 
				1780.446,1876.036 1599.419,1793.344 			"/>
			<rect x="1320.924" y="1438.901" style="fill:#466EB6;" width="278.608" height="354.593"/>
			<path style="fill:#466EB6;" d="M2303.289,1550.14V750.541c0-37.992-30.799-68.791-68.791-68.791H684.148
				c-37.992,0-68.79,30.799-68.79,68.791v799.599H2303.289z"/>
			<rect x="1141.517" y="1876.036" style="opacity:0.3;fill:#184655;" width="638.93" height="18.317"/>
			<rect x="1320.924" y="1751.733" style="opacity:0.3;fill:#184655;" width="278.495" height="41.611"/>
			<path style="fill:#5184CE;" d="M615.357,1550.14v128.134c0,26.651,17.617,48.258,39.349,48.258H2263.94
				c21.731,0,39.349-21.606,39.349-48.258V1550.14H615.357z"/>
			<path style="fill:#184655;" d="M1477.657,658.823c0,8.654-7.017,15.67-15.671,15.67c-8.655,0-15.671-7.016-15.671-15.67
				c0-8.655,7.016-15.671,15.671-15.671C1470.641,643.152,1477.657,650.168,1477.657,658.823z"/>
			<path style="fill:#CCE6FF;" d="M2263.777,1515.416V752.675c0-19.994-16.792-36.202-37.506-36.202H692.375
				c-20.714,0-37.506,16.208-37.506,36.202v762.741H2263.777z"/>
			<path style="fill:#FFFFFF;" d="M1554.468,1204.902h-176.575c-25.523,137.24-98.339,243.537-231.251,310.514h639.078
				C1644.967,1447.442,1575.076,1339.924,1554.468,1204.902z"/>
			<rect x="291.65" y="1891.425" style="fill:#0E2E35;" width="2251.749" height="13.438"/>
		</g>
		<g>
			<g>
				<path style="fill:#878583;" d="M1566.595,1204.902h-200.828c-4.49,0-8.13-3.64-8.13-8.13v-54.477h217.088v54.477
					C1574.725,1201.263,1571.085,1204.902,1566.595,1204.902z"/>
				<g>
					<path style="fill:#F47458;" d="M1296.982,839.254c0,0-81.879,109.073-140.093,176.146
						c-78.563,90.521-57.687,102.058,12.669,353.128c179.065-120.585,102.684-294.575,166.979-329.632
						C1453.864,974.924,1296.982,839.254,1296.982,839.254z"/>
					<path style="fill:#F47458;" d="M1635.379,839.254c0,0,81.879,109.073,140.093,176.146
						c78.563,90.521,57.687,102.058-12.669,353.128c-179.066-120.585-102.685-294.575-166.979-329.632
						C1478.497,974.924,1635.379,839.254,1635.379,839.254z"/>
				</g>
				<g>
					<path style="fill:#F47458;" d="M1688.886,753.218c0-210.261-121.514-397.984-184.416-481.075
						c-18.742-24.757-55.765-25.306-75.245-1.126c-64.083,79.541-185.749,258.646-185.749,471.981
						c0,86.195,59.069,330.987,89.862,393.372c7.38,14.95,22.556,24.457,39.228,24.457h191.936c16.672,0,31.848-9.507,39.228-24.457
						C1634.522,1073.984,1688.886,839.413,1688.886,753.218z"/>
				</g>
				<path style="fill:#F7CC7F;" d="M1603.729,1136.369c30.793-62.385,85.156-296.956,85.156-383.151
					c0-128.061-45.077-247.763-94.533-340.556c-38.529-19.852-80.952-30.85-125.514-30.85c-49.292,0-95.97,13.456-137.653,37.469
					c-46.84,87.928-87.709,200.072-87.709,323.716c0,86.195,59.069,330.987,89.862,393.372c7.379,14.95,22.555,24.457,39.228,24.457
					h191.936C1581.174,1160.826,1596.35,1151.319,1603.729,1136.369z"/>
				<g>
					
						<ellipse transform="matrix(0.7071 -0.7071 0.7071 0.7071 -29.8531 1234.0521)" style="fill:#EBD6AC;" cx="1474.706" cy="653.062" rx="136.733" ry="136.733"/>
					<circle style="fill:#0E2E35;" cx="1466.835" cy="651.325" r="136.733"/>
					<path style="fill:#1F4752;" d="M1336.238,653.362c0-75.516,61.218-136.733,136.733-136.733c13.893,0,27.294,2.087,39.926,5.938
						c-14.396-5.15-29.896-7.975-46.063-7.975c-75.516,0-136.733,61.218-136.733,136.733c0,61.623,40.772,113.71,96.806,130.794
						C1374.06,763.21,1336.238,712.711,1336.238,653.362z"/>
					
						<ellipse transform="matrix(0.2559 -0.9667 0.9667 0.2559 348.0486 1993.0626)" style="fill:#D1CFCB;" cx="1468.673" cy="770.447" rx="10.323" ry="10.323"/>
					<circle style="fill:#D1CFCB;" cx="1468.019" cy="535.677" r="10.323"/>
					
						<ellipse transform="matrix(0.7071 -0.7071 0.7071 0.7071 49.3116 1268.8595)" style="fill:#D1CFCB;" cx="1556.305" cy="574.905" rx="10.323" ry="10.323"/>
					<circle style="fill:#D1CFCB;" cx="1384.681" cy="737.068" r="10.323"/>
					
						<ellipse transform="matrix(0.7071 -0.7071 0.7071 0.7071 -62.1309 1315.0204)" style="fill:#D1CFCB;" cx="1556.305" cy="732.509" rx="10.323" ry="10.323"/>
					<path style="fill:#D1CFCB;" d="M1390.875,573.273c0,5.701-4.622,10.323-10.323,10.323c-5.701,0-10.323-4.622-10.323-10.323
						c0-5.702,4.622-10.324,10.323-10.324C1386.253,562.95,1390.875,567.572,1390.875,573.273z"/>
					
						<ellipse transform="matrix(0.7071 -0.7071 0.7071 0.7071 2.772 1313.416)" style="fill:#D1CFCB;" cx="1586.819" cy="653.362" rx="10.323" ry="10.323"/>
					
						<ellipse transform="matrix(0.9035 -0.4285 0.4285 0.9035 -149.8869 640.8817)" style="fill:#D1CFCB;" cx="1348.55" cy="653.362" rx="10.323" ry="10.323"/>
					<linearGradient id="SVGID_1_" gradientUnits="userSpaceOnUse" x1="1366.522" y1="651.3253" x2="1567.1484" y2="651.3253">
						<stop  offset="0" style="stop-color:#1F90F2"/>
						<stop  offset="1" style="stop-color:#A3D6FF"/>
					</linearGradient>
					<circle style="fill:url(#SVGID_1_);" cx="1466.835" cy="651.325" r="100.313"/>
					<path style="fill:#C1DAE3;" d="M1378.028,663.685c0-55.401,44.912-100.314,100.313-100.314c25.958,0,49.613,9.86,67.425,26.039
						c-18.365-23.38-46.895-38.398-78.932-38.398c-55.401,0-100.313,44.912-100.313,100.313c0,29.443,12.685,55.924,32.888,74.274
						C1386.016,708.548,1378.028,687.05,1378.028,663.685z"/>
					<g>
						
							<ellipse transform="matrix(0.7071 -0.7071 0.7071 0.7071 -114.028 1262.3978)" style="fill:#878583;" cx="1466.835" cy="768.843" rx="10.323" ry="10.323"/>
						<path style="fill:#858585;" d="M1466.836,774.575c-3.161,0-5.732-2.571-5.732-5.733c0-3.161,2.571-5.732,5.732-5.732
							s5.732,2.571,5.732,5.732C1472.568,772.003,1469.997,774.575,1466.836,774.575z"/>
						<circle style="fill:#878583;" cx="1466.181" cy="534.073" r="10.323"/>
						<path style="fill:#858585;" d="M1466.182,539.805c-3.161,0-5.732-2.571-5.732-5.732c0-3.161,2.571-5.732,5.732-5.732
							c3.16,0,5.731,2.571,5.731,5.732C1471.913,537.233,1469.342,539.805,1466.182,539.805z"/>
						
							<ellipse transform="matrix(0.1756 -0.9845 0.9845 0.1756 717.04 2002.9019)" style="fill:#878583;" cx="1554.467" cy="573.301" rx="10.323" ry="10.323"/>
						<path style="fill:#858585;" d="M1554.468,579.033c-3.16,0-5.731-2.571-5.731-5.733c0-3.161,2.571-5.732,5.731-5.732
							c3.161,0,5.732,2.571,5.732,5.732C1560.2,576.462,1557.629,579.033,1554.468,579.033z"/>
						<path style="fill:#878583;" d="M1393.167,735.464c0,5.702-4.622,10.323-10.323,10.323c-5.702,0-10.323-4.622-10.323-10.323
							c0-5.701,4.622-10.323,10.323-10.323C1388.545,725.141,1393.167,729.763,1393.167,735.464z"/>
						<path style="fill:#858585;" d="M1382.844,741.197c-3.161,0-5.732-2.571-5.732-5.732c0-3.161,2.571-5.732,5.732-5.732
							c3.161,0,5.732,2.571,5.732,5.732C1388.576,738.626,1386.005,741.197,1382.844,741.197z"/>
						
							<ellipse transform="matrix(0.1756 -0.9845 0.9845 0.1756 561.8868 2132.8228)" style="fill:#878583;" cx="1554.467" cy="730.905" rx="10.323" ry="10.323"/>
						<path style="fill:#858585;" d="M1554.468,736.637c-3.16,0-5.731-2.571-5.731-5.732c0-3.161,2.571-5.732,5.731-5.732
							c3.161,0,5.732,2.571,5.732,5.732C1560.2,734.066,1557.629,736.637,1554.468,736.637z"/>
						<circle style="fill:#878583;" cx="1378.714" cy="571.669" r="10.323"/>
						<path style="fill:#858585;" d="M1378.715,577.401c-3.161,0-5.732-2.571-5.732-5.732c0-3.161,2.571-5.732,5.732-5.732
							c3.161,0,5.732,2.571,5.732,5.732C1384.447,574.83,1381.875,577.401,1378.715,577.401z"/>
						
							<ellipse transform="matrix(0.7071 -0.7071 0.7071 0.7071 3.3679 1311.6466)" style="fill:#878583;" cx="1584.981" cy="651.758" rx="10.323" ry="10.323"/>
						<path style="fill:#858585;" d="M1584.983,657.49c-3.161,0-5.734-2.571-5.734-5.732c0-3.161,2.573-5.732,5.734-5.732
							c3.16,0,5.729,2.571,5.729,5.732C1590.713,654.919,1588.144,657.49,1584.983,657.49z"/>
						
							<ellipse transform="matrix(0.9249 -0.3803 0.3803 0.9249 -146.6745 561.1029)" style="fill:#878583;" cx="1346.712" cy="651.758" rx="10.323" ry="10.323"/>
						<path style="fill:#858585;" d="M1346.711,657.49c-3.161,0-5.732-2.571-5.732-5.732c0-3.161,2.571-5.732,5.732-5.732
							s5.732,2.571,5.732,5.732C1352.443,654.919,1349.872,657.49,1346.711,657.49z"/>
					</g>
					<path style="fill:#7A7A7A;" d="M1529.373,654.809c-11.329,43.746-55.976,70.025-99.723,58.695
						c-13.474-3.489-25.283-10.148-34.854-18.959c10.914,18.88,29.085,33.55,51.865,39.449
						c45.092,11.678,91.112-15.409,102.791-60.502c9.555-36.894-6.851-74.398-37.828-93.216
						C1528.889,599.955,1536.432,627.555,1529.373,654.809z"/>
				</g>
			</g>
			<path style="fill:#F47458;" d="M1494.671,1127.87c0,132.911-13.186,218.683-28.49,240.658
				c-15.827-22.892-28.49-107.747-28.49-240.658c0-132.911,28.49-240.658,28.49-240.658S1494.671,994.959,1494.671,1127.87z"/>
			<path style="fill:#592D24;" d="M1271.341,788.815c0-222.161,130.562-408.677,199.33-491.508c0.063-0.076,0.126-0.152,0.189-0.228
				c6.432-7.657-1.753-18.66-11.211-15.005c-7.319,2.829-14.055,7.484-19.447,13.979
				c-64.082,77.188-185.749,250.996-185.749,458.021c0,82.451,53.06,286.325,84.191,350.917
				C1305.906,1002.682,1271.341,859.131,1271.341,788.815z"/>
		</g>
		<path style="fill:#FFFFFF;" d="M2263.777,1515.416v-239.372c-6.819-1.136-13.82-1.736-20.963-1.736
			c-69.98,0-126.71,79.142-126.71,149.122c0,4.522,0.241,8.988,0.704,13.388c-1.149-0.039-2.302-0.065-3.461-0.065
			c-11.316,0-22.198,1.865-32.354,5.305c-15.519-44.336-57.717-76.138-107.351-76.138c-57.454,0-104.948,42.612-112.622,97.956
			c-6.785-1.937-13.939-2.995-21.346-2.995c-34.837,0-64.316,22.938-74.157,54.536H2263.777z"/>
		<path style="fill:#FFFFFF;" d="M1106.68,1438.901c-32.643,0-61.053,18.107-75.747,44.821
			c-11.251-12.273-27.412-19.973-45.375-19.973c-15.778,0-30.164,5.944-41.056,15.707c-8.834-54.022-55.716-95.249-112.235-95.249
			c-9.285,0-18.307,1.121-26.946,3.22c0.024-1.07,0.041-2.143,0.041-3.22c0-77.085-62.489-139.574-139.574-139.574
			c-3.675,0-7.316,0.145-10.919,0.423v270.359h537.638C1187.604,1472.355,1151.052,1438.901,1106.68,1438.901z"/>
		<g>
			<g>
				<path style="fill:#A34B3D;" d="M930.379,412.39c1.935,0.08,7.238,1.854,14.993,16.51c9.903,18.715,24.376,75.25,24.376,75.25
					l-43.203,16.089l-5.55-11.8l-9.141-90.846C911.854,417.593,929.843,412.367,930.379,412.39z"/>
				<path style="fill:#B75742;" d="M873.27,404.241c12.354,0.016,42.921,3.621,57.109,8.154c0,0,10.422,89.58-9.383,157.648
					c-4.434,15.237,3.667,63.164,3.667,63.164l-128.015-1.689c0,0,15.166-115.866,9.453-134.581
					c-5.713-18.715-5.85-83.94-5.85-83.94s0.877-0.137,28.762-4.957C842.019,405.792,860.08,404.224,873.27,404.241z"/>
				<path style="fill:#F7A491;" d="M858.354,799.471c0,0,2.832,32.687,8.039,41.739c5.207,9.052-0.274,24.439-0.548,26.552
					c-0.274,2.112-10.962,5.129-27.954,3.319c-16.992-1.81-16.717-5.733-15.347-12.069c1.37-6.336,10.414-14.483,10.962-20.518
					c0.548-6.034-5.207-27.759-5.207-27.759L858.354,799.471z"/>
				<path style="fill:#E0973F;" d="M910.219,606.228c0,0,88.368-4.907,108.102,7.044c19.733,11.951-14.02,70.605-14.02,70.605
					s-61.49-2.833-181.932,4.117c-28.521,1.646-30.98-74.366-25.646-80.656C802.057,601.048,910.219,606.228,910.219,606.228z"/>
				<path style="fill:#DD513A;" d="M835.771,873.618c-17.497-1.864-15.333-10.46-13.922-16.985
					c0.884-4.085,5.903-8.901,8.895-13.457c1.564,1.246,4.108,3.446,11.706,5.69c7.891,2.331,18.707-2.282,25.599-5.171
					c2.457,9.142,2.568,20.801,2.339,22.57C870.106,868.44,853.268,875.482,835.771,873.618z"/>
				<path style="fill:#F7CC7F;" d="M845.429,669.447c3.53,26.716,21.011,159.713,21.011,159.713l-40.561,5.029
					c0,0-49.879-173.593-47.321-200.145c2.558-26.552,21.229-28.786,21.229-28.786S836.084,598.726,845.429,669.447z"/>
				<path style="fill:#F7A491;" d="M798.857,422.954c11.97-4.49,17.825,103.354,19.438,147.744
					c21.196,2.039,58.14,0.015,67.339-0.676c4.327-0.325,14.302-3.979,18.605-4.542c4.41-0.578,8.406-0.878,10.574-0.501
					c0.796,0.139,22.889,9.173,24.779,11.155c2.344,2.458,8.68,8.655,7.611,11.336c-1.069,2.68-12.187-7.468-12.187-7.468
					l-5.433-3.048c6.764,6.608,19.664,15.31,17.807,18.479c-1.813,3.09-13.45-5.741-21.744-11.759
					c7.114,6.425,15.952,17.924,13.916,19.716c-1.83,1.611-11.883-11.701-22.627-15.535c-3.982-1.42-7.95,2.514-11.082,2.989
					c-2.302,0.349-5.856,1.092-8.114,0.452l-11.632-3.299c-3.963,0.359-4.063,2.703-8.064,3.555
					c-4.646,0.988-12.268,2.029-18.184,3.475c-34.068,8.324-45.432,12.19-55.862,12.183
					C772.403,607.19,770.57,433.565,798.857,422.954z"/>
				<path style="fill:#A34B3D;" d="M776.143,524.202c-2.242-45.468-1.914-101.511,23.574-111.072
					c10.057-3.773,27.786,18.912,24.598,111.996C810.708,526.249,790.731,527.153,776.143,524.202z"/>
				<path style="fill:#F7A491;" d="M981.197,831.17c0,0-5.857,10.343-1.248,19.017c4.609,8.673,28.792,21.433,31.311,26.136
					c2.52,4.703,1.533,8.031,1.533,8.031l-71.811-17.604l5.503-21.646l6.715-14.959L981.197,831.17z"/>
				<path style="fill:#DD513A;" d="M983.652,854.815c0,0-20.186,3.496-28.19-2.887c-8.005-6.384-7.468-7.557-10.421-6.46
					c-1.898,0.706-4.787,9.326-6.608,15.394c-0.97,3.23,0.972,6.613,4.246,7.422l74.775,18.478c5.681,1.092,9.439-2.453,5.616-7.01
					c-2.62-3.125-5.906-5.547-7.718-7.181C1009.785,867.554,983.652,854.815,983.652,854.815z"/>
				<path style="fill:#F7CC7F;" d="M974.159,627.174c5.712-12.021,18.705-27.673,41.564-18.246
					c21.802,8.991,27.654,31.087,20.775,53.714c-6.878,22.627-52.164,155.638-53.743,173.926l-36.157,0.24
					c0,0,6.571-105.32,8.183-130.778C956.333,681.534,964.273,647.979,974.159,627.174z"/>
				<path style="fill:#184655;" d="M1032.857,504.665H911.992c-3.198,0-6.079,1.939-7.292,4.908l-37.216,91.076h-66.633
					c-1.863,0-3.374,1.515-3.374,3.383l0,0c0,1.868,1.511,3.383,3.374,3.383h189.646c5.214,0,9.942-3.071,12.078-7.843
					l37.473-83.759C1042.388,510.579,1038.573,504.665,1032.857,504.665z"/>
				<path style="fill:#FFFFFF;" d="M967.783,557.699c-0.816,4.091-4.373,6.826-7.943,6.11c-3.571-0.717-5.803-4.613-4.987-8.705
					c0.816-4.09,4.373-6.826,7.943-6.11S968.6,553.608,967.783,557.699z"/>
				<g>
					<path style="fill:#0E2E35;" d="M901.994,294.831c-3.643-1.227-7.229-2.611-10.692-4.281c-3.914-1.888-8.987-4.099-12.191-4.593
						c-6.745-1.041-18.333-0.347-24.733,6.595c-7.973,8.648-22.139,1.562-19.285,46.857c3.23,51.27,31.738,45.643,32.43,44.774
						c0.691-0.868,25.424-32.8,25.424-32.8s8.648,18.917,8.648,18.222C901.594,368.935,945.75,309.567,901.994,294.831z"/>
					<path style="fill:#F7A491;" d="M880.352,387.969l2.461,18.319c0,0,5.513,26.393-1.58,31.481
						c-7.092,5.088-30.16-32.233-30.16-32.233l2.437-46.42L880.352,387.969z"/>
					<path style="fill:#F47458;" d="M852.722,374.16c5.858,15.833,19.812,25.565,29.717,29.341l-2.087-15.532l-26.842-28.853
						L852.722,374.16z"/>
					<path style="fill:#F7A491;" d="M878.895,308.601c15.029-2.426,28.508,9.66,28.133,24.705c-0.163,6.539-0.7,14.704-2.058,23.497
						c-3.268,21.147-17.696,39.769-27.236,38.106c-9.541-1.663-33.544-19.905-29.318-49.999
						C851.025,326.33,863.125,311.147,878.895,308.601z"/>
					<path style="fill:#F7A491;" d="M855.036,348.501c-0.805,4.65-4.53,7.885-8.32,7.225c-3.79-0.661-6.21-4.966-5.405-9.616
						c0.805-4.65,4.53-7.885,8.32-7.225C853.421,339.546,855.84,343.851,855.036,348.501z"/>
					<path style="fill:#0E2E35;" d="M849.631,338.885c0,0,11.535,2.866,15.815-4.553c4.281-7.419,19.587-23.428,39.045-16.79
						c19.458,6.638-17.123-16.14-18.679-16.14c-1.557,0-20.236-0.13-20.236-0.13s-14.398,11.844-14.917,13.146
						c-0.519,1.302-4.67,15.489-4.67,15.489L849.631,338.885z"/>
				</g>
				<path style="fill:#FFFFFF;" d="M870.734,369.839l20.988,4.013c0,0-2.003,7.906-11.283,6.409
					C869.123,378.436,870.734,369.839,870.734,369.839z"/>
			</g>
		</g>
		<g>
			<path style="fill:#F7A491;" d="M2279.054,1813.448c0,0,3.885,27.103,10.569,35.848c2.244,2.936,6.342,6.649,9.032,11.954
				c4.187,8.258,1.872,20.553-1.217,27.324c-1.585,3.476,0.111,3.466-3.499,4.586c-10.691,3.316-22.064-2.269-26.616-12.566
				c-2.543-5.753-4.774-13.426-5.223-23.095c-1.141-24.608-8.751-37.12-8.751-37.12L2279.054,1813.448z"/>
			<path style="fill:#F7A491;" d="M2162.116,1823.978c0,0-2.398,30.561-0.452,40.493c1.043,5.318,6.849,16.266,4.186,21.271
				c-2.663,5.005-5.707,6.256-5.707,6.256l-69.027,1.118c-3.76,0.06-1.275-2.372,1.756-4.614c4.963-3.669,8.967-6.095,24.819-13.807
				c1.033-0.503,4.798-2.909,6.155-3.743c3.441-2.114,6.897-5.441,9.873-8.772c4.957-5.55,5.39-32.462,5.39-32.462
				L2162.116,1823.978z"/>
			<path style="fill:#E25A44;" d="M2108.166,1417.747c0,0-8.693,49.62-2.986,82.149c5.707,32.531,33.102,334.061,33.102,334.061
				l30.441,1.727c0,0,6.381-125.956,5.239-143.472c-1.142-17.517-10.175-46.83-10.175-46.83l3.029-101.695l-38.414-133.599
				L2108.166,1417.747z"/>
			<path style="fill:#F47458;" d="M2197.635,1407.311c0,0,23.97,36.284,29.677,66.313c5.707,30.027-4.188,122.311,6.79,161.659
				c5.942,21.302,28.467,54.196,31.892,81.722c3.424,27.526,16.857,99.628,16.857,99.628l-30.428,6.065l-70.716-180.068
				l-55.469-162.756l-14.21-83.822L2197.635,1407.311z"/>
			<path style="fill:#F7CC7F;" d="M2265.25,1875.177c16.583,3.041,27.617-6.715,33.358-14.018c4.215,8.273,6.271,20.62,3.171,27.416
				c-2.73,5.986-10.711,5.814-16.994,6.049c-6.643,0.249-11.783-3.463-15.079-9.28
				C2268.167,1882.626,2266.579,1879.242,2265.25,1875.177z"/>
			<path style="fill:#F7CC7F;" d="M2123.854,1870.945c18.255,4.711,31.75,1.508,39.299-1.553c1.946,5.549,4.527,12.51,3.159,16.524
				c-1.676,4.914-4.063,6.025-6.17,6.081c-16.675,0.44-61.08,1.04-73.795,1.206c-1.775,0.023-2.755-2.063-1.613-3.434
				C2087.888,1885.983,2122.494,1871.781,2123.854,1870.945z"/>
			<path style="fill:#F38B80;" d="M1998.908,1332.037c-1.271-2.704,12.139-6.385,12.57-9.299c0.432-2.913-17.544-1.271-18.445-3.697
				c-1.661-4.47,19.577-3.009,18.943-5.113c-0.634-2.106-22.46-4.691-20.537-8.616s22.353,5.043,22.678,2.481
				c0.324-2.563-19.749-6.63-19.97-12.148c-0.118-2.949,33.426,11.303,36.939,9.328c3.515-1.975-5.552-14.956-2.834-17.303
				c2.718-2.348,14.489,24.799,16.614,25.592c2.119,0.79,48.15,14.707,63.804,17.014c1.321-5.3,13.09-34.463,14.222-39.462
				c9.188,5.202,20.898-1.059,30.306,3.576c-4.733,16.697-15.365,71.691-19.614,74.168c-12.936,7.54-80.992-28.411-92.242-34.774
				c-11.26-6.369-17.01-3.329-24.346-4.949C2009.661,1327.215,2000.179,1334.741,1998.908,1332.037z"/>
			<path style="fill:#0E2E35;" d="M2120.01,1170.035c-3.424-15.563-6.777-31.222,2.248-48.318
				c7.304-13.834,19.929-21.795,34.541-23.528c41.402-4.913,32.554,33.738,90.421,42.105c17.98,2.6,34.686,5.099,49.698,14.042
				c27.107,16.147,37.34,42.05,19.362,84.248c-44.021,103.33-149.354,13.539-165.42-4.736
				C2134.917,1215.711,2122.213,1180.052,2120.01,1170.035z"/>
			<path style="fill:#F7CC7F;" d="M2185.173,1219.154c0,0,20.905,2.372,33.41,15.975c12.505,13.601-20.213,122.941-22.486,140.254
				c-2.273,17.312,21.742,65.225,21.742,65.225s-81.636,16.228-102.856,2.212c0,0-1.865-133.807,0.409-146.172
				c2.273-12.367,21.221-62.656,25.769-67.603C2145.707,1224.1,2185.173,1219.154,2185.173,1219.154z"/>
			<path style="fill:#F7A491;" d="M2174.65,1177.004c0,0,0.163,0.929,0.457,2.509c1.409,7.585,6.836,32.743,10.503,39.659
				c4.431,8.358-15.168,35.017-34.031,31.763c-5.616-0.968,4.746-24.493,4.248-26.985c-0.953-4.771-2.246-11.278-3.568-17.951
				c-0.746-3.764-1.502-7.58-2.212-11.167c-2.018-10.194-3.663-18.531-3.663-18.531L2174.65,1177.004z"/>
			<path style="opacity:0.5;fill:#F47458;" d="M2175.107,1179.514c-0.294-1.581-0.457-2.51-0.457-2.51l-28.267-0.704
				c0,0,1.646,8.337,3.663,18.531c0.706,3.566,1.457,7.361,2.199,11.104c4.363-0.641,8.924-2.758,13.496-6.752
				c4.984-4.355,8.251-9.588,10.223-15.175C2175.617,1182.227,2175.326,1180.689,2175.107,1179.514z"/>
			<path style="fill:#F7A491;" d="M2157.647,1109.822c0,0,11.527,1.599,19.879,12.378c8.351,10.78,17.353,44.115-3.394,62.239
				c-20.746,18.124-41.244-2.391-44.283-24.143C2126.811,1138.545,2127.425,1109.037,2157.647,1109.822z"/>
			<path style="fill:#F7A491;" d="M2123.801,1154.927c1.309,5.243,4.744,8.786,7.674,7.912s4.244-5.834,2.936-11.078
				s-4.744-8.786-7.674-7.912C2123.807,1144.723,2122.492,1149.683,2123.801,1154.927z"/>
			<path style="fill:#0E2E35;" d="M2144.844,1109.918c0,0,27.091,31.101,39.824,32.565s14.405,18.31,14.405,18.31
				s-4.553-38.814-17.158-46.3C2169.309,1107.008,2144.844,1109.918,2144.844,1109.918z"/>
			<path style="fill:#F7A491;" d="M2180.504,1150.036c-1.035,5.63,1.047,10.792,4.652,11.531c3.604,0.739,7.366-3.226,8.401-8.855
				c1.036-5.63-1.047-10.792-4.651-11.53C2185.301,1140.442,2181.539,1144.406,2180.504,1150.036z"/>
			<path style="fill:#184655;" d="M2180.891,1307.887l-87.539,12.807c-2.632,0.385-4.453,2.831-4.068,5.462l17.085,116.788
				c0.386,2.632,2.831,4.453,5.462,4.068l87.54-12.807c2.632-0.385,4.453-2.83,4.068-5.462l-17.085-116.788
				C2185.968,1309.323,2183.522,1307.502,2180.891,1307.887z"/>
			<path style="fill:#13375B;" d="M2115.597,1313.568c-0.077-0.533,0.292-1.029,0.825-1.107l36.514-5.341
				c0.534-0.078,1.029,0.29,1.107,0.824l0.555,3.795l-38.445,5.624L2115.597,1313.568z"/>
			<path style="fill:#13375B;" d="M2129.088,1311.777c0.465,3.181,3.42,5.382,6.601,4.916c3.181-0.465,5.382-3.42,4.916-6.601
				c-0.465-3.181-3.42-5.382-6.601-4.917C2130.823,1305.642,2128.622,1308.597,2129.088,1311.777z M2131.153,1311.476
				c-0.299-2.04,1.113-3.936,3.152-4.233c2.04-0.299,3.936,1.113,4.233,3.152c0.299,2.04-1.113,3.935-3.152,4.233
				C2133.347,1314.927,2131.451,1313.516,2131.153,1311.476z"/>
			<path style="fill:#355389;" d="M2116.057,1312.593c-0.325,0.196-0.518,0.575-0.46,0.976l0.556,3.795l38.445-5.624
				c0.385,2.63-1.435,5.072-4.063,5.457l-28.925,4.232c-2.629,0.385-5.072-1.435-5.457-4.065l-0.556-3.795
				C2115.539,1313.168,2115.731,1312.789,2116.057,1312.593z"/>
			<path style="fill:#FFFFFF;" d="M2142.82,1171.071l19.7-0.104c0,0-0.414,7.485-9.076,7.781
				C2142.883,1179.109,2142.82,1171.071,2142.82,1171.071z"/>
			<path style="fill:#F7A491;" d="M2242.307,1337.752l-31.719,3.241c0,0,0.517,26.921-0.027,30.015c0,0-54.24,15.035-76.909,19.114
				c0,0-10.322-5.85-14.497-7.71c-4.176-1.86-15.401-3.89-17.883-4.215c-2.482-0.324-1.635,2.396,0.497,3.346
				c2.132,0.949,7.646,3.549,9.211,6.731c0,0-4.478,0.489-6.847-0.566c-2.369-1.056-5.633-3.29-5.684-4.449
				c-0.052-1.158-0.591-3.951-1.368-3.801c-0.198,0.038-0.463,0.956-0.729,1.914c-0.253,0.912-0.521,1.846-0.742,2.766
				c-0.398,1.65-0.856,4.063-1.035,5.146c-0.405,2.472,1.106,9.292,1.319,11.714c0.388,4.421,1.65,6.385,3.984,7.513
				c3.765,1.312,7.746,2.147,13.634,2.756c10.789,1.116,20.706-1.99,25.032-2.476c4.326-0.486,73.394-7.336,73.394-7.336
				s27.457-3.952,29.278-8.678C2243.038,1388.051,2242.307,1337.752,2242.307,1337.752z"/>
			<path style="fill:#F7CC7F;" d="M2214.751,1231.177c0,0,10.011,4.746,18.812,25.249c8.362,19.484,10.82,116.718,10.82,116.718
				l-33.18-5.53l-16.86-45.336c-12.017-27.135-8.914-58.728,8.595-82.688C2207.607,1233.197,2211.91,1229.337,2214.751,1231.177z"/>
		</g>
	</g>
</g>
</svg>
