<?xml version="1.0"?>
<svg version="1.1" xmlns="http://www.w3.org/2000/svg" width="250px" height="50px" style=""><path fill="#ffffff" d="M0.8935546875,37.216796875q0-0.5126953125,0.3515625-0.65185546875t0.76171875-0.13916015625q0.7177734375,0,1.2158203125,0.64453125t0.94482421875,1.41357421875t0.88623046875,1.41357421875t1.0400390625,0.64453125q0.4541015625,0,0.82763671875-0.22705078125t0.64453125-0.5712890625t0.41748046875-0.7763671875t0.146484375-0.85693359375q0-1.11328125-0.44677734375-2.2998046875t-1.142578125-2.4462890625t-1.47216796875-2.578125t-1.46484375-2.6806640625t-1.142578125-2.77587890625t-0.4541015625-2.84912109375q0-2.1533203125,1.2890625-3.33984375t3.3984375-1.1865234375q0.7177734375,0,1.4501953125,0.205078125t1.34765625,0.615234375t1.00341796875,1.0107421875t0.38818359375,1.40625q0,0.263671875-0.38818359375,0.34423828125t-0.56396484375,0.08056640625q-0.263671875,0-0.5712890625-0.06591796875t-0.3955078125-0.35888671875t-0.2490234375-0.673828125t-0.40283203125-0.71044921875t-0.5712890625-0.5712890625t-0.72509765625-0.24169921875q-0.6591796875,0-1.12060546875,0.27099609375t-0.7470703125,0.72509765625t-0.4248046875,1.01806640625t-0.13916015625,1.16455078125q0,1.40625,0.4833984375,2.83447265625t1.201171875,2.841796875t1.56005859375,2.79052734375t1.56005859375,2.6806640625t1.201171875,2.548828125t0.4833984375,2.3583984375q0,0.99609375-0.46875,1.6845703125t-1.1865234375,1.12060546875t-1.58935546875,0.6298828125t-1.70654296875,0.19775390625q-0.8935546875,0-1.8310546875-0.35888671875t-1.6845703125-0.98876953125t-1.23046875-1.47216796875t-0.4833984375-1.82373046875z M14.072314453125,29.2333984375q0-0.6884765625,0.27099609375-1.01806640625t0.98876953125-0.32958984375q0.4248046875,0,0.79833984375,0.17578125t0.37353515625,0.7470703125q0.05859375,0.8349609375,0.05859375,1.75048828125t0.1611328125,1.73583984375q0.3662109375-0.6005859375,0.82763671875-1.201171875t1.01806640625-1.0693359375t1.2158203125-0.75439453125t1.435546875-0.28564453125q1.0546875,0,1.787109375,0.439453125t1.20849609375,1.142578125t0.6884765625,1.58935546875t0.21240234375,1.77978515625q0,1.376953125-0.41748046875,2.24853515625t-1.10595703125,1.36962890625t-1.56005859375,0.673828125t-1.75048828125,0.17578125q-0.7763671875,0-1.4501953125-0.30029296875t-0.9375-1.13525390625q0-0.234375,0.34423828125-0.29296875t0.49072265625-0.05859375q0.4833984375,0,0.7177734375,0.263671875q0.17578125,0.205078125,0.38818359375,0.41748046875t0.44677734375,0.21240234375q0.4541015625,0,0.9521484375-0.25634765625t0.91552734375-0.673828125t0.703125-0.98876953125t0.28564453125-1.171875q0-0.5126953125-0.087890625-1.2744140625t-0.30029296875-1.46484375t-0.5859375-1.2158203125t-0.94482421875-0.5126953125q-0.8642578125,0-1.56005859375,0.791015625t-1.1572265625,1.904296875t-0.7177734375,2.314453125t-0.25634765625,2.0068359375t0.1025390625,2.0361328125t0.21240234375,2.55615234375t0.21240234375,2.55615234375t0.1025390625,2.0361328125q0,0.205078125-0.16845703125,0.32958984375t-0.40283203125,0.19775390625t-0.47607421875,0.087890625t-0.35888671875,0.0146484375q-0.3955078125,0-0.82763671875-0.087890625t-0.59326171875-0.5419921875q-0.205078125-0.7177734375-0.380859375-2.04345703125t-0.31494140625-2.9296875t-0.24169921875-3.369140625t-0.17578125-3.40576171875t-0.10986328125-3.0029296875t-0.03662109375-2.16796875z M28.11533203125,34.5361328125q0-0.99609375,0.27099609375-1.9189453125t0.81298828125-1.64794921875t1.35498046875-1.1572265625t1.88232421875-0.43212890625q0.6591796875,0,1.45751953125,0.19775390625t1.50146484375,0.5859375t1.171875,0.98876953125t0.46875,1.376953125q0,0.3662109375-0.12451171875,0.556640625t-0.50537109375,0.1904296875l-0.1611328125-0.029296875q0.4248046875,1.142578125,0.732421875,2.34375t0.6005859375,2.40234375q0.1171875,0.234375,0.17578125,0.41748046875t0.05859375,0.35888671875q0,0.234375-0.1318359375,0.38818359375t-0.34423828125,0.22705078125t-0.439453125,0.1025390625t-0.40283203125,0.029296875q-0.6298828125,0-0.94482421875-0.2197265625t-0.4541015625-0.6005859375t-0.16845703125-0.85693359375t-0.1171875-0.95947265625q-0.17578125,0.5712890625-0.46142578125,1.11328125t-0.673828125,0.97412109375t-0.91552734375,0.6884765625t-1.1865234375,0.25634765625q-0.966796875,0-1.6259765625-0.556640625t-1.06201171875-1.36962890625t-0.5859375-1.73583984375t-0.18310546875-1.7138671875z M30.19541015625,34.3310546875q0,0.5419921875,0.0732421875,1.142578125t0.24169921875,1.1865234375t0.43212890625,1.10595703125t0.6591796875,0.91552734375q0.7177734375-0.7763671875,1.06201171875-1.8896484375t0.615234375-2.14599609375t0.615234375-1.7724609375t1.06201171875-0.73974609375q0.4541015625,0,0.76171875,0.1611328125q-0.146484375-0.3662109375-0.4833984375-0.71044921875t-0.75439453125-0.6298828125t-0.8642578125-0.46875t-0.84228515625-0.18310546875q-0.1171875,0-0.27099609375,0.03662109375t-0.24169921875,0.00732421875q-0.6005859375,0.17578125-0.98876953125,0.60791015625t-0.6298828125,1.01806640625t-0.34423828125,1.201171875t-0.1025390625,1.1572265625z M40.810693359375,30.4345703125q0-0.6005859375,0.21240234375-1.0107421875t0.90087890625-0.41015625q0.263671875,0,0.6591796875,0.08056640625t0.4541015625,0.40283203125q0.146484375,0.8642578125,0.1611328125,1.875t0.1025390625,1.904296875q0.3369140625-0.6591796875,0.8642578125-1.4208984375t1.201171875-1.40625t1.46484375-1.0693359375t1.611328125-0.4248046875q0.05859375,0,0.2197265625,0.0439453125t0.30029296875,0.12451171875t0.16845703125,0.18310546875t-0.1611328125,0.1904296875q-0.05859375,0.17578125-0.2490234375,0.21240234375t-0.3369140625,0.03662109375q-0.087890625,0-0.2783203125-0.0732421875q-1.083984375,0.5712890625-1.845703125,1.552734375t-1.2451171875,2.17529296875t-0.703125,2.51953125t-0.2197265625,2.58544921875q0,0.6298828125-0.28564453125,0.76171875t-0.91552734375,0.1318359375q-0.3369140625,0-0.71044921875-0.0732421875t-0.52001953125-0.46875q-0.263671875-0.8349609375-0.43212890625-1.9189453125t-0.25634765625-2.23388671875t-0.12451171875-2.26318359375t-0.03662109375-2.0068359375z M51.2208984375,40.4833984375l0.3076171875-0.3662109375q-0.05859375-2.4609375-0.1318359375-4.9072265625t-0.0732421875-4.86328125q0-3.0029296875,0.35888671875-5.80810546875t0.71044921875-5.74951171875q0.029296875-0.17578125,0.16845703125-0.28564453125t0.34423828125-0.18310546875t0.41748046875-0.1025390625t0.38818359375-0.029296875q0.234375,0,0.5859375,0.087890625t0.703125,0.5126953125q0,0.146484375,0.02197265625,0.25634765625t0.02197265625,0.25634765625q0,1.11328125-0.30029296875,2.3876953125t-0.40283203125,2.4462890625q-0.1171875,1.435546875-0.1611328125,2.841796875t-0.0439453125,2.8564453125l0.029296875,1.2890625q0.29296875-0.3662109375,0.8349609375-0.9375t1.171875-1.10595703125t1.259765625-0.91552734375t1.142578125-0.380859375q0.7763671875,0,1.07666015625,0.439453125t0.30029296875,1.1572265625q0,0.6591796875-0.28564453125,1.376953125t-0.7470703125,1.39892578125t-1.04736328125,1.22314453125t-1.1572265625,0.8056640625q0.7763671875,0.966796875,1.58935546875,1.845703125t1.77978515625,1.6552734375l0,0.3369140625q-0.029296875,0.146484375-0.18310546875,0.2197265625t-0.3369140625,0.1171875t-0.35888671875,0.06591796875t-0.29296875,0.02197265625q-0.7177734375,0-1.38427734375-0.4248046875t-1.2451171875-1.0400390625t-1.09130859375-1.3037109375t-0.9375-1.201171875q0.087890625,1.6845703125,0.19775390625,3.36181640625t0.10986328125,3.36181640625q0,0.205078125-0.18310546875,0.34423828125t-0.4248046875,0.21240234375t-0.49072265625,0.1025390625t-0.41015625,0.029296875q-0.8642578125,0-1.22314453125-0.31494140625t-0.60791015625-1.09130859375z M54.223828125,33.583984375q0.3662109375,0,0.87158203125-0.31494140625t1.04736328125-0.78369140625t1.0107421875-0.98876953125t0.75439453125-0.98876953125t0.28564453125-0.75439453125t-0.3955078125-0.25634765625q-0.146484375,0-0.6005859375,0.4248046875t-1.0107421875,1.0400390625t-1.11328125,1.3330078125t-0.849609375,1.2890625z M63.081298828125,37.216796875q0-0.5126953125,0.3515625-0.65185546875t0.76171875-0.13916015625q0.7177734375,0,1.2158203125,0.64453125t0.94482421875,1.41357421875t0.88623046875,1.41357421875t1.0400390625,0.64453125q0.4541015625,0,0.82763671875-0.22705078125t0.64453125-0.5712890625t0.41748046875-0.7763671875t0.146484375-0.85693359375q0-1.11328125-0.44677734375-2.2998046875t-1.142578125-2.4462890625t-1.47216796875-2.578125t-1.46484375-2.6806640625t-1.142578125-2.77587890625t-0.4541015625-2.84912109375q0-2.1533203125,1.2890625-3.33984375t3.3984375-1.1865234375q0.7177734375,0,1.4501953125,0.205078125t1.34765625,0.615234375t1.00341796875,1.0107421875t0.38818359375,1.40625q0,0.263671875-0.38818359375,0.34423828125t-0.56396484375,0.08056640625q-0.263671875,0-0.5712890625-0.06591796875t-0.3955078125-0.35888671875t-0.2490234375-0.673828125t-0.40283203125-0.71044921875t-0.5712890625-0.5712890625t-0.72509765625-0.24169921875q-0.6591796875,0-1.12060546875,0.27099609375t-0.7470703125,0.72509765625t-0.4248046875,1.01806640625t-0.13916015625,1.16455078125q0,1.40625,0.4833984375,2.83447265625t1.201171875,2.841796875t1.56005859375,2.79052734375t1.56005859375,2.6806640625t1.201171875,2.548828125t0.4833984375,2.3583984375q0,0.99609375-0.46875,1.6845703125t-1.1865234375,1.12060546875t-1.58935546875,0.6298828125t-1.70654296875,0.19775390625q-0.8935546875,0-1.8310546875-0.35888671875t-1.6845703125-0.98876953125t-1.23046875-1.47216796875t-0.4833984375-1.82373046875z M76.26005859375,29.2333984375q0-0.6884765625,0.27099609375-1.01806640625t0.98876953125-0.32958984375q0.4248046875,0,0.79833984375,0.17578125t0.37353515625,0.7470703125q0.05859375,0.8349609375,0.05859375,1.75048828125t0.1611328125,1.73583984375q0.3662109375-0.6005859375,0.82763671875-1.201171875t1.01806640625-1.0693359375t1.2158203125-0.75439453125t1.435546875-0.28564453125q1.0546875,0,1.787109375,0.439453125t1.20849609375,1.142578125t0.6884765625,1.58935546875t0.21240234375,1.77978515625q0,1.376953125-0.41748046875,2.24853515625t-1.10595703125,1.36962890625t-1.56005859375,0.673828125t-1.75048828125,0.17578125q-0.7763671875,0-1.4501953125-0.30029296875t-0.9375-1.13525390625q0-0.234375,0.34423828125-0.29296875t0.49072265625-0.05859375q0.4833984375,0,0.7177734375,0.263671875q0.17578125,0.205078125,0.38818359375,0.41748046875t0.44677734375,0.21240234375q0.4541015625,0,0.9521484375-0.25634765625t0.91552734375-0.673828125t0.703125-0.98876953125t0.28564453125-1.171875q0-0.5126953125-0.087890625-1.2744140625t-0.30029296875-1.46484375t-0.5859375-1.2158203125t-0.94482421875-0.5126953125q-0.8642578125,0-1.56005859375,0.791015625t-1.1572265625,1.904296875t-0.7177734375,2.314453125t-0.25634765625,2.0068359375t0.1025390625,2.0361328125t0.21240234375,2.55615234375t0.21240234375,2.55615234375t0.1025390625,2.0361328125q0,0.205078125-0.16845703125,0.32958984375t-0.40283203125,0.19775390625t-0.47607421875,0.087890625t-0.35888671875,0.0146484375q-0.3955078125,0-0.82763671875-0.087890625t-0.59326171875-0.5419921875q-0.205078125-0.7177734375-0.380859375-2.04345703125t-0.31494140625-2.9296875t-0.24169921875-3.369140625t-0.17578125-3.40576171875t-0.10986328125-3.0029296875t-0.03662109375-2.16796875z M90.303076171875,36.1328125l0-1.376953125q0-0.7470703125,0.03662109375-2.11669921875t0.09521484375-3.0029296875t0.1611328125-3.40576171875t0.234375-3.34716796875t0.31494140625-2.81982421875t0.41748046875-1.845703125q0.146484375-0.3369140625,0.4833984375-0.4248046875t0.6591796875-0.087890625q0.5126953125,0,0.90087890625,0.22705078125t0.38818359375,0.82763671875l-0.263671875,0.29296875q-0.5126953125,3.3837890625-0.6591796875,6.796875t-0.205078125,6.826171875q0.3662109375-0.5712890625,0.82763671875-1.12060546875t1.025390625-0.97412109375t1.2158203125-0.68115234375t1.42822265625-0.25634765625q0.99609375,0,1.64794921875,0.6005859375t1.07666015625,1.56005859375t0.6298828125,2.14599609375t0.31494140625,2.373046875t0.15380859375,2.24853515625t0.1318359375,1.76513671875q-0.2783203125,0.380859375-0.8203125,0.380859375l-0.0439453125,0q-0.234375,0-0.5126953125-0.05859375t-0.3662109375-0.29296875l0.029296875,0.029296875q-0.205078125-0.4541015625-0.2783203125-1.31103515625t-0.1171875-1.8896484375t-0.15380859375-2.11669921875t-0.32958984375-1.962890625t-0.64453125-1.4501953125t-1.142578125-0.6005859375l-0.087890625,0q-0.8642578125,0-1.4501953125,0.52734375q-0.615234375,0.556640625-0.99609375,1.46484375t-0.5859375,2.021484375t-0.31494140625,2.14599609375t-0.16845703125,1.875t-0.146484375,1.23779296875q-0.087890625,0.3369140625-0.52001953125,0.44677734375t-0.73974609375,0.10986328125q-0.7177734375,0-1.171875-0.41015625q-0.3369140625-0.8056640625-0.3955078125-2.0068359375t-0.05859375-2.34375z M104.316796875,35.13671875q0-1.025390625,0.22705078125-2.4169921875t0.76904296875-2.63671875t1.42822265625-2.11669921875t2.23388671875-0.87158203125q1.259765625,0,1.8896484375,0.72509765625t0.6298828125,1.95556640625q0,0.8056640625-0.30029296875,1.76513671875t-0.85693359375,1.81640625t-1.318359375,1.42822265625t-1.69921875,0.5712890625l-0.380859375-0.029296875q0,0.3955078125,0.1171875,1.06201171875t0.34423828125,1.32568359375t0.5859375,1.1572265625t0.87158203125,0.498046875q0.7470703125,0,1.435546875-0.6005859375t1.3037109375-1.3330078125t1.142578125-1.3330078125t0.966796875-0.6005859375q0.234375,0,0.4833984375,0.0732421875t0.2783203125,0.41015625q0,0.205078125-0.10986328125,0.3369140625t-0.19775390625,0.29296875q-0.4541015625,0.7763671875-0.98876953125,1.4794921875t-1.20849609375,1.2744140625t-1.47216796875,0.90087890625t-1.76513671875,0.32958984375q-1.259765625,0-2.0947265625-0.44677734375t-1.34765625-1.201171875t-0.73974609375-1.7431640625t-0.22705078125-2.07275390625z M106.9388671875,34.0234375l0.41015625,0.3662109375q0.29296875,0.263671875,0.5859375,0.1171875t0.52734375-0.53466796875t0.43212890625-0.95947265625t0.3515625-1.171875t0.22705078125-1.171875t0.0732421875-0.9521484375l0-0.498046875t-0.0439453125-0.52734375t-0.15380859375-0.41748046875t-0.34423828125-0.21240234375q-0.0732421875-0.0146484375-0.1318359375-0.0146484375q-0.498046875,0-0.849609375,0.6298828125q-0.380859375,0.703125-0.615234375,1.70654296875t-0.3369140625,2.05810546875t-0.1318359375,1.58203125z M116.55805664063,30.4345703125q0-0.6005859375,0.21240234375-1.0107421875t0.90087890625-0.41015625q0.263671875,0,0.6591796875,0.08056640625t0.4541015625,0.40283203125q0.146484375,0.8642578125,0.1611328125,1.875t0.1025390625,1.904296875q0.3369140625-0.6591796875,0.8642578125-1.4208984375t1.201171875-1.40625t1.46484375-1.0693359375t1.611328125-0.4248046875q0.05859375,0,0.2197265625,0.0439453125t0.30029296875,0.12451171875t0.16845703125,0.18310546875t-0.1611328125,0.1904296875q-0.05859375,0.17578125-0.2490234375,0.21240234375t-0.3369140625,0.03662109375q-0.087890625,0-0.2783203125-0.0732421875q-1.083984375,0.5712890625-1.845703125,1.552734375t-1.2451171875,2.17529296875t-0.703125,2.51953125t-0.2197265625,2.58544921875q0,0.6298828125-0.28564453125,0.76171875t-0.91552734375,0.1318359375q-0.3369140625,0-0.71044921875-0.0732421875t-0.52001953125-0.46875q-0.263671875-0.8349609375-0.43212890625-1.9189453125t-0.25634765625-2.23388671875t-0.12451171875-2.26318359375t-0.03662109375-2.0068359375z M126.96826171875,35.13671875q0-1.025390625,0.22705078125-2.4169921875t0.76904296875-2.63671875t1.42822265625-2.11669921875t2.23388671875-0.87158203125q1.259765625,0,1.8896484375,0.72509765625t0.6298828125,1.95556640625q0,0.8056640625-0.30029296875,1.76513671875t-0.85693359375,1.81640625t-1.318359375,1.42822265625t-1.69921875,0.5712890625l-0.380859375-0.029296875q0,0.3955078125,0.1171875,1.06201171875t0.34423828125,1.32568359375t0.5859375,1.1572265625t0.87158203125,0.498046875q0.7470703125,0,1.435546875-0.6005859375t1.3037109375-1.3330078125t1.142578125-1.3330078125t0.966796875-0.6005859375q0.234375,0,0.4833984375,0.0732421875t0.2783203125,0.41015625q0,0.205078125-0.10986328125,0.3369140625t-0.19775390625,0.29296875q-0.4541015625,0.7763671875-0.98876953125,1.4794921875t-1.20849609375,1.2744140625t-1.47216796875,0.90087890625t-1.76513671875,0.32958984375q-1.259765625,0-2.0947265625-0.44677734375t-1.34765625-1.201171875t-0.73974609375-1.7431640625t-0.22705078125-2.07275390625z M129.59033203125,34.0234375l0.41015625,0.3662109375q0.29296875,0.263671875,0.5859375,0.1171875t0.52734375-0.53466796875t0.43212890625-0.95947265625t0.3515625-1.171875t0.22705078125-1.171875t0.0732421875-0.9521484375l0-0.498046875t-0.0439453125-0.52734375t-0.15380859375-0.41748046875t-0.34423828125-0.21240234375q-0.0732421875-0.0146484375-0.1318359375-0.0146484375q-0.498046875,0-0.849609375,0.6298828125q-0.380859375,0.703125-0.615234375,1.70654296875t-0.3369140625,2.05810546875t-0.1318359375,1.58203125z"/><path fill="#d3dce3" d="M133.46142578125,31.3134765625q-0.00732421875-0.2197265625-0.00732421875-0.439453125q0-0.6884765625,0.0732421875-1.38427734375q0.087890625-0.9228515625,0.1171875-1.81640625q0.029296875-1.04736328125,0.087890625-2.17529296875q0.03662109375-0.615234375,0.03662109375-1.2158203125q0-0.49072265625-0.02197265625-0.97412109375q0.0732421875-0.16845703125,0.194091796875-0.22705078125t0.303955078125-0.05859375q0.087890625,0,0.186767578125,0.0146484375t0.172119140625,0.0732421875q0.1025390625,0.0146484375,0.252685546875,0.029296875t0.230712890625,0.087890625q0.029296875,0.0439453125,0.150146484375,0.30029296875t0.28564453125,0.62255859375t0.34423828125,0.794677734375t0.34423828125,0.81298828125t0.28564453125,0.677490234375t0.150146484375,0.3662109375q0.6884765625-1.2451171875,1.34765625-2.559814453125t1.44287109375-2.479248046875q0.0732421875-0.1025390625,0.252685546875-0.150146484375t0.296630859375-0.047607421875q0.31494140625,0,0.457763671875,0.150146484375t0.186767578125,0.384521484375q0.029296875,0.146484375,0.03662109375,0.31494140625q0.00732421875,0.087890625-0.00732421875,0.18310546875q-0.029296875,0.27099609375-0.029296875,0.5126953125q0,1.70654296875-0.1171875,3.387451171875t-0.21240234375,3.394775390625q-0.0146484375,0.3515625-0.0146484375,0.732421875t0.0146484375,0.791015625q0.00732421875,0.146484375,0.00732421875,0.28564453125q0,0.64453125-0.10986328125,1.201171875q-0.1025390625,0.16845703125-0.3369140625,0.21240234375t-0.3955078125,0.0439453125q-0.34423828125,0-0.6591796875-0.1611328125l-0.08056640625-0.09521484375l-0.029296875-0.1171875t-0.0146484375-0.1171875q0-1.06201171875,0.076904296875-2.138671875t0.172119140625-2.149658203125t0.201416015625-2.142333984375t0.179443359375-2.138671875q-0.43212890625,0.7177734375-0.838623046875,1.461181640625t-0.765380859375,1.512451171875q-0.1318359375,0.30029296875-0.252685546875,0.64453125t-0.289306640625,0.615234375q-0.087890625,0.1318359375-0.296630859375,0.1611328125t-0.362548828125,0.029296875q-0.146484375,0-0.303955078125-0.05126953125t-0.216064453125-0.2197265625q-0.27099609375-0.82763671875-0.57861328125-1.61865234375t-0.62255859375-1.60400390625q0,0.5419921875,0.02197265625,1.402587890625t0.02197265625,1.783447265625t-0.029296875,1.76513671875t-0.13916015625,1.3330078125q-0.029296875,0.18310546875-0.238037109375,0.22705078125t-0.362548828125,0.0439453125q-0.1171875,0-0.223388671875-0.0146484375t-0.208740234375-0.05859375z M142.01369628906,29.9072265625q0-0.41748046875,0.106201171875-0.860595703125t0.3369140625-0.79833984375t0.582275390625-0.57861328125t0.849609375-0.223388671875q0.37353515625,0,0.787353515625,0.128173828125t0.758056640625,0.3662109375t0.560302734375,0.582275390625t0.216064453125,0.76904296875q0,0.5126953125-0.186767578125,0.97412109375t-0.523681640625,0.823974609375t-0.787353515625,0.5712890625t-0.977783203125,0.208740234375q-0.43212890625,0-0.75439453125-0.157470703125t-0.538330078125-0.421142578125t-0.322265625-0.62255859375t-0.106201171875-0.76171875z M143.09035644531,29.892578125q0,0.1318359375,0.040283203125,0.38818359375t0.120849609375,0.501708984375t0.208740234375,0.4248046875t0.311279296875,0.164794921875q0.38818359375-0.0439453125,0.640869140625-0.252685546875t0.41015625-0.509033203125t0.2197265625-0.65185546875t0.062255859375-0.66650390625q0-0.40283203125-0.157470703125-0.673828125t-0.516357421875-0.439453125q0,0.0146484375,0.0146484375,0.0146484375t0.0146484375-0.0146484375l-0.18310546875-0.0439453125q-0.0732421875-0.029296875-0.179443359375-0.06591796875t-0.208740234375-0.1611328125q-0.28564453125,0.1025390625-0.443115234375,0.263671875t-0.238037109375,0.391845703125t-0.098876953125,0.552978515625t-0.018310546875,0.7763671875z M147.56303710937,29.68017578125q0-0.5712890625,0.120849609375-1.036376953125t0.384521484375-0.787353515625t0.692138671875-0.501708984375t1.043701171875-0.179443359375q0.34423828125,0,0.703125,0.091552734375t0.615234375,0.340576171875q0-0.146484375,0.029296875-0.604248046875t0.0732421875-1.065673828125t0.091552734375-1.2744140625t0.084228515625-1.23779296875t0.06591796875-0.95947265625t0.0439453125-0.439453125q0.0732421875-0.21240234375,0.27099609375-0.252685546875t0.37353515625-0.040283203125q0.46142578125,0,0.567626953125,0.146484375t0.106201171875,0.5859375q0,1.60400390625-0.142822265625,3.193359375t-0.142822265625,3.193359375q0,1.03271484375,0.040283203125,2.076416015625t0.289306640625,2.054443359375l0.08056640625,0.0732421875l0.0439453125,0.1318359375l-0.10986328125,0.16845703125q-0.2783203125,0.17578125-0.64453125,0.17578125l-0.029296875,0q-0.37353515625,0-0.6884765625-0.17578125q-0.1171875-0.0732421875-0.194091796875-0.435791015625t-0.120849609375-0.79833984375t-0.06591796875-0.838623046875t-0.03662109375-0.5712890625q-0.25634765625,0.5859375-0.699462890625,1.007080078125t-1.116943359375,0.421142578125q-0.52734375,0-0.8642578125-0.22705078125t-0.523681640625-0.57861328125t-0.263671875-0.787353515625t-0.076904296875-0.867919921875z M148.44926757812,29.72412109375q0,0.16845703125,0.040283203125,0.498046875t0.128173828125,0.6591796875t0.245361328125,0.5859375t0.413818359375,0.25634765625q0.34423828125-0.16845703125,0.62255859375-0.560302734375t0.479736328125-0.8642578125t0.31494140625-0.94482421875t0.113525390625-0.816650390625q0-0.43212890625-0.31494140625-0.7177734375t-0.75439453125-0.28564453125q-0.1318359375,0-0.267333984375,0.05126953125t-0.252685546875,0.1171875q-0.27099609375,0.25634765625-0.421142578125,0.465087890625t-0.22705078125,0.43212890625t-0.098876953125,0.494384765625t-0.02197265625,0.6298828125z M154.49665527344,30.068359375q0-0.5126953125,0.113525390625-1.20849609375t0.384521484375-1.318359375t0.714111328125-1.058349609375t1.116943359375-0.435791015625q0.6298828125,0,0.94482421875,0.362548828125t0.31494140625,0.977783203125q0,0.40283203125-0.150146484375,0.882568359375t-0.428466796875,0.908203125t-0.6591796875,0.714111328125t-0.849609375,0.28564453125l-0.1904296875-0.0146484375q0,0.19775390625,0.05859375,0.531005859375t0.172119140625,0.662841796875t0.29296875,0.57861328125t0.435791015625,0.2490234375q0.37353515625,0,0.7177734375-0.30029296875t0.65185546875-0.66650390625t0.5712890625-0.66650390625t0.4833984375-0.30029296875q0.1171875,0,0.24169921875,0.03662109375t0.13916015625,0.205078125q0,0.1025390625-0.054931640625,0.16845703125t-0.098876953125,0.146484375q-0.22705078125,0.38818359375-0.494384765625,0.73974609375t-0.604248046875,0.63720703125t-0.736083984375,0.450439453125t-0.882568359375,0.164794921875q-0.6298828125,0-1.04736328125-0.223388671875t-0.673828125-0.6005859375t-0.369873046875-0.87158203125t-0.113525390625-1.036376953125z M155.80769042969,29.51171875l0.205078125,0.18310546875q0.146484375,0.1318359375,0.29296875,0.05859375t0.263671875-0.267333984375t0.216064453125-0.479736328125t0.17578125-0.5859375t0.113525390625-0.5859375t0.03662109375-0.47607421875l0-0.2490234375t-0.02197265625-0.263671875t-0.076904296875-0.208740234375t-0.172119140625-0.106201171875q-0.03662109375-0.00732421875-0.06591796875-0.00732421875q-0.2490234375,0-0.4248046875,0.31494140625q-0.1904296875,0.3515625-0.3076171875,0.853271484375t-0.16845703125,1.029052734375t-0.06591796875,0.791015625z M160.61728515625,27.71728515625q0-0.30029296875,0.106201171875-0.50537109375t0.450439453125-0.205078125q0.1318359375,0,0.32958984375,0.040283203125t0.22705078125,0.201416015625q0.0732421875,0.43212890625,0.08056640625,0.9375t0.05126953125,0.9521484375q0.16845703125-0.32958984375,0.43212890625-0.71044921875t0.6005859375-0.703125t0.732421875-0.53466796875t0.8056640625-0.21240234375q0.029296875,0,0.10986328125,0.02197265625t0.150146484375,0.062255859375t0.084228515625,0.091552734375t-0.08056640625,0.09521484375q-0.029296875,0.087890625-0.12451171875,0.106201171875t-0.16845703125,0.018310546875q-0.0439453125,0-0.13916015625-0.03662109375q-0.5419921875,0.28564453125-0.9228515625,0.7763671875t-0.62255859375,1.087646484375t-0.3515625,1.259765625t-0.10986328125,1.292724609375q0,0.31494140625-0.142822265625,0.380859375t-0.457763671875,0.06591796875q-0.16845703125,0-0.355224609375-0.03662109375t-0.260009765625-0.234375q-0.1318359375-0.41748046875-0.216064453125-0.95947265625t-0.128173828125-1.116943359375t-0.062255859375-1.131591796875t-0.018310546875-1.00341796875z M165.82971191406,29.8046875l0-0.21240234375q0-0.263671875,0.0146484375-0.498046875q0.0146484375-0.32958984375,0.0146484375-0.5419921875q0-0.1171875,0.0146484375-0.267333984375t0.0732421875-0.238037109375q0.0732421875-0.0732421875,0.172119140625-0.150146484375t0.216064453125-0.076904296875q0.37353515625,0,0.5859375,0.084228515625t0.22705078125,0.347900390625l0.029296875,0.22705078125q0.1318359375-0.31494140625,0.3515625-0.780029296875t0.509033203125-0.88623046875t0.65185546875-0.7177734375t0.765380859375-0.296630859375q0.37353515625,0,0.615234375,0.3515625t0.384521484375,0.897216796875t0.201416015625,1.2158203125t0.08056640625,1.314697265625t0.029296875,1.175537109375t0.05126953125,0.802001953125q0.029296875,0.22705078125,0.098876953125,0.479736328125t0.069580078125,0.465087890625q0,0.05859375-0.084228515625,0.113525390625t-0.179443359375,0.091552734375t-0.194091796875,0.05859375t-0.142822265625,0.02197265625q-0.28564453125,0-0.406494140625-0.428466796875t-0.150146484375-1.072998046875t-0.029296875-1.395263671875t-0.05126953125-1.395263671875t-0.208740234375-1.072998046875t-0.501708984375-0.443115234375q-0.31494140625,0-0.65185546875,0.406494140625t-0.57861328125,1.080322265625q-0.234375,0.673828125-0.322265625,1.53076171875q-0.029296875,0.27099609375-0.029296875,0.5419921875q0,0.59326171875,0.12451171875,1.1865234375q0.0146484375,0.1025390625-0.084228515625,0.15380859375t-0.245361328125,0.08056640625t-0.296630859375,0.03662109375t-0.230712890625,0.00732421875q-0.28564453125,0-0.457763671875-0.201416015625t-0.267333984375-0.516357421875t-0.128173828125-0.706787109375t-0.040283203125-0.772705078125z M175.33903808594,21.41845703125q0-0.146484375,0.22705078125-0.208740234375t0.37353515625-0.062255859375q0.16845703125,0,0.369873046875,0.0439453125t0.245361328125,0.22705078125q0.21240234375,0.85693359375,0.325927734375,1.746826171875t0.172119140625,1.790771484375t0.09521484375,1.790771484375t0.08056640625,1.761474609375q0.19775390625-0.87158203125,0.406494140625-1.732177734375t0.545654296875-1.717529296875l0-0.5859375q0-0.37353515625,0.260009765625-0.538330078125t0.699462890625-0.164794921875q0.0439453125,0,0.201416015625,0.02197265625t0.157470703125,0.146484375q-0.029296875,0.087890625-0.069580078125,0.16845703125t-0.040283203125,0.17578125q0,1.11328125,0.263671875,2.281494140625t0.52001953125,2.274169921875q0.146484375-0.94482421875,0.3369140625-1.88232421875t0.3955078125-1.86767578125q0.27099609375-1.2451171875,0.413818359375-2.069091796875t0.27099609375-1.3037109375t0.2783203125-0.68115234375t0.421142578125-0.201416015625q0.16845703125-0.0146484375,0.31494140625,0.05859375t0.1171875,0.24169921875q-0.52734375,2.548828125-0.985107421875,5.1123046875t-0.933837890625,5.126953125q0,0.146484375,0.05126953125,0.34423828125t0.05126953125,0.3515625q0,0.087890625-0.08056640625,0.146484375t-0.194091796875,0.098876953125t-0.2490234375,0.054931640625t-0.238037109375,0.0146484375q-0.22705078125,0-0.47607421875-0.069580078125t-0.322265625-0.399169921875q-0.25634765625-1.142578125-0.472412109375-2.296142578125t-0.399169921875-2.325439453125q-0.05859375,0.27099609375-0.10986328125,0.54931640625t-0.09521484375,0.56396484375q-0.21240234375,1.2451171875-0.46875,2.490234375t-0.25634765625,2.51953125q0,0.31494140625-0.1318359375,0.406494140625t-0.44677734375,0.091552734375q-0.24169921875,0-0.41015625-0.08056640625q-0.1318359375-0.0732421875-0.2490234375-0.1318359375q-0.1025390625-0.05859375-0.186767578125-0.135498046875t-0.084228515625-0.150146484375q-0.1171875-1.58935546875-0.164794921875-3.15673828125t-0.106201171875-3.15673828125q-0.05859375-1.42822265625-0.172119140625-2.852783203125t-0.252685546875-2.830810546875z M184.235546875,30.068359375q0-0.5126953125,0.113525390625-1.20849609375t0.384521484375-1.318359375t0.714111328125-1.058349609375t1.116943359375-0.435791015625q0.6298828125,0,0.94482421875,0.362548828125t0.31494140625,0.977783203125q0,0.40283203125-0.150146484375,0.882568359375t-0.428466796875,0.908203125t-0.6591796875,0.714111328125t-0.849609375,0.28564453125l-0.1904296875-0.0146484375q0,0.19775390625,0.05859375,0.531005859375t0.172119140625,0.662841796875t0.29296875,0.57861328125t0.435791015625,0.2490234375q0.37353515625,0,0.7177734375-0.30029296875t0.65185546875-0.66650390625t0.5712890625-0.66650390625t0.4833984375-0.30029296875q0.1171875,0,0.24169921875,0.03662109375t0.13916015625,0.205078125q0,0.1025390625-0.054931640625,0.16845703125t-0.098876953125,0.146484375q-0.22705078125,0.38818359375-0.494384765625,0.73974609375t-0.604248046875,0.63720703125t-0.736083984375,0.450439453125t-0.882568359375,0.164794921875q-0.6298828125,0-1.04736328125-0.223388671875t-0.673828125-0.6005859375t-0.369873046875-0.87158203125t-0.113525390625-1.036376953125z M185.54658203125,29.51171875l0.205078125,0.18310546875q0.146484375,0.1318359375,0.29296875,0.05859375t0.263671875-0.267333984375t0.216064453125-0.479736328125t0.17578125-0.5859375t0.113525390625-0.5859375t0.03662109375-0.47607421875l0-0.2490234375t-0.02197265625-0.263671875t-0.076904296875-0.208740234375t-0.172119140625-0.106201171875q-0.03662109375-0.00732421875-0.06591796875-0.00732421875q-0.2490234375,0-0.4248046875,0.31494140625q-0.1904296875,0.3515625-0.3076171875,0.853271484375t-0.16845703125,1.029052734375t-0.06591796875,0.791015625z M190.35617675781,27.63671875q0-0.5126953125,0.047607421875-1.3330078125t0.113525390625-1.69189453125t0.164794921875-1.651611328125t0.216064453125-1.197509765625q0.0439453125-0.18310546875,0.208740234375-0.2197265625t0.333251953125-0.03662109375q0.22705078125,0,0.391845703125,0.08056640625t0.164794921875,0.3515625q0,1.3330078125-0.164794921875,2.669677734375t-0.179443359375,2.669677734375q0.22705078125-0.34423828125,0.5859375-0.516357421875t0.76171875-0.172119140625q0.556640625,0,0.95947265625,0.22705078125t0.65185546875,0.5859375t0.369873046875,0.831298828125t0.120849609375,0.963134765625q0,0.27099609375-0.054931640625,0.677490234375t-0.164794921875,0.85693359375t-0.2783203125,0.8935546875t-0.399169921875,0.794677734375t-0.531005859375,0.567626953125t-0.6591796875,0.216064453125q-0.0732421875,0-0.194091796875-0.02197265625t-0.24169921875-0.06591796875t-0.201416015625-0.113525390625t-0.08056640625-0.172119140625q0-0.1171875,0.142822265625-0.164794921875t0.230712890625-0.047607421875q0.32958984375-0.146484375,0.5859375-0.611572265625t0.428466796875-1.021728515625t0.260009765625-1.102294921875t0.087890625-0.889892578125q0-0.19775390625-0.05859375-0.52734375t-0.179443359375-0.65185546875t-0.32958984375-0.556640625t-0.494384765625-0.234375q-0.34423828125,0-0.54931640625,0.355224609375t-0.322265625,0.82763671875t-0.157470703125,0.97412109375t-0.040283203125,0.787353515625q0,0.18310546875,0.062255859375,0.362548828125t0.142822265625,0.35888671875t0.142822265625,0.3662109375t0.062255859375,0.369873046875q0,0.087890625-0.076904296875,0.146484375t-0.179443359375,0.09521484375t-0.216064453125,0.047607421875t-0.172119140625,0.010986328125q-0.41748046875,0-0.57861328125-0.19775390625t-0.2783203125-0.556640625q-0.25634765625-0.81298828125-0.355224609375-1.651611328125t-0.098876953125-1.680908203125z M199.45534667969,22.31201171875q0-0.5126953125,0.17578125-0.6884765625t0.49072265625-0.17578125q0.087890625,0,0.186767578125,0.0146484375t0.186767578125,0.0439453125q0.49072265625-0.09521484375,0.93017578125-0.09521484375q0.71044921875,0,1.2890625,0.2490234375q0.93017578125,0.3955078125,1.5380859375,1.171875t0.8935546875,1.82373046875t0.28564453125,2.14599609375q0,0.615234375-0.084228515625,1.28173828125t-0.325927734375,1.23779296875q-0.21240234375,0.5126953125-0.5859375,1.072998046875t-0.845947265625,1.06201171875t-1.01806640625,0.87890625t-1.102294921875,0.509033203125l0,0.05859375q0,0.146484375-0.076904296875,0.238037109375t-0.186767578125,0.13916015625t-0.252685546875,0.062255859375t-0.267333984375,0.0146484375q-0.0732421875,0-0.208740234375-0.0146484375t-0.263671875-0.054931640625t-0.216064453125-0.106201171875t-0.087890625-0.18310546875q0-1.3330078125-0.069580078125-2.669677734375t-0.157470703125-2.67333984375t-0.157470703125-2.669677734375t-0.069580078125-2.67333984375z M200.83962402344,21.9384765625q0.0732421875,0.703125,0.09521484375,1.402587890625t0.06591796875,1.402587890625q0.1171875,1.81640625,0.27099609375,3.614501953125t0.18310546875,3.614501953125q0.703125-0.46142578125,1.204833984375-1.0546875t0.823974609375-1.2890625t0.472412109375-1.461181640625t0.150146484375-1.578369140625q0-0.5859375-0.1025390625-1.2890625t-0.3515625-1.35498046875t-0.670166015625-1.17919921875t-1.051025390625-0.75439453125q-0.1318359375-0.0439453125-0.318603515625-0.0732421875t-0.596923828125-0.029296875q-0.0439453125,0-0.087890625,0.0146484375t-0.087890625,0.0146484375z M206.9236328125,30.068359375q0-0.5126953125,0.113525390625-1.20849609375t0.384521484375-1.318359375t0.714111328125-1.058349609375t1.116943359375-0.435791015625q0.6298828125,0,0.94482421875,0.362548828125t0.31494140625,0.977783203125q0,0.40283203125-0.150146484375,0.882568359375t-0.428466796875,0.908203125t-0.6591796875,0.714111328125t-0.849609375,0.28564453125l-0.1904296875-0.0146484375q0,0.19775390625,0.05859375,0.531005859375t0.172119140625,0.662841796875t0.29296875,0.57861328125t0.435791015625,0.2490234375q0.37353515625,0,0.7177734375-0.30029296875t0.65185546875-0.66650390625t0.5712890625-0.66650390625t0.4833984375-0.30029296875q0.1171875,0,0.24169921875,0.03662109375t0.13916015625,0.205078125q0,0.1025390625-0.054931640625,0.16845703125t-0.098876953125,0.146484375q-0.22705078125,0.38818359375-0.494384765625,0.73974609375t-0.604248046875,0.63720703125t-0.736083984375,0.450439453125t-0.882568359375,0.164794921875q-0.6298828125,0-1.04736328125-0.223388671875t-0.673828125-0.6005859375t-0.369873046875-0.87158203125t-0.113525390625-1.036376953125z M208.23466796875,29.51171875l0.205078125,0.18310546875q0.146484375,0.1318359375,0.29296875,0.05859375t0.263671875-0.267333984375t0.216064453125-0.479736328125t0.17578125-0.5859375t0.113525390625-0.5859375t0.03662109375-0.47607421875l0-0.2490234375t-0.02197265625-0.263671875t-0.076904296875-0.208740234375t-0.172119140625-0.106201171875q-0.03662109375-0.00732421875-0.06591796875-0.00732421875q-0.2490234375,0-0.4248046875,0.31494140625q-0.1904296875,0.3515625-0.3076171875,0.853271484375t-0.16845703125,1.029052734375t-0.06591796875,0.791015625z M213.04426269531,27.87841796875q0-0.30029296875,0.17578125-0.516357421875t0.428466796875-0.3515625t0.552978515625-0.201416015625t0.556640625-0.06591796875q0.19775390625,0,0.52734375,0.05859375t0.64453125,0.17578125t0.545654296875,0.3076171875t0.230712890625,0.44677734375q0,0.1171875-0.087890625,0.208740234375t-0.18310546875,0.091552734375q-0.19775390625,0-0.35888671875-0.128173828125t-0.333251953125-0.27099609375t-0.377197265625-0.27099609375t-0.46142578125-0.128173828125t-0.465087890625,0.164794921875t-0.208740234375,0.435791015625q0,0.44677734375,0.31494140625,0.875244140625t0.692138671875,0.90087890625t0.692138671875,0.992431640625t0.31494140625,1.14990234375q0,0.27099609375-0.113525390625,0.457763671875t-0.30029296875,0.303955078125t-0.421142578125,0.179443359375t-0.4541015625,0.062255859375q-0.24169921875,0-0.56396484375-0.113525390625t-0.60791015625-0.30029296875t-0.479736328125-0.435791015625t-0.194091796875-0.52001953125q0-0.1318359375,0.186767578125-0.16845703125t0.274658203125-0.03662109375q0.0439453125,0,0.135498046875,0.029296875t0.179443359375,0.06591796875t0.157470703125,0.08056640625t0.054931640625,0.09521484375q0.0732421875,0.087890625,0.223388671875,0.260009765625t0.30029296875,0.2783203125t0.263671875,0.076904296875t0.113525390625-0.32958984375q0-0.5712890625-0.3076171875-1.051025390625t-0.670166015625-0.9375t-0.670166015625-0.908203125t-0.3076171875-0.963134765625z M218.20541992188,29.59228515625q0-0.673828125,0.157470703125-1.322021484375t0.267333984375-1.292724609375q0.029296875-0.16845703125,0.230712890625-0.208740234375t0.340576171875-0.040283203125q0.24169921875,0,0.38818359375,0.0732421875q0.05859375,0.029296875,0.10986328125,0.06591796875t0.05126953125,0.09521484375q0,0.6298828125-0.150146484375,1.23046875t-0.150146484375,1.2744140625q0,0.22705078125,0.032958984375,0.428466796875t0.062255859375,0.399169921875l0.0439453125,0.21240234375q0,0.05859375,0.00732421875,0.1025390625t0.02197265625,0.1025390625q0,0.1318359375-0.186767578125,0.179443359375t-0.325927734375,0.047607421875q-0.21240234375,0-0.391845703125-0.084228515625t-0.281982421875-0.289306640625l-0.1025390625-0.21240234375q-0.087890625-0.16845703125-0.087890625-0.377197265625t-0.03662109375-0.384521484375z M218.67416992188,25.18310546875l0-0.13916015625q0-0.34423828125,0.172119140625-0.615234375t0.516357421875-0.27099609375q0.0439453125,0,0.084228515625,0.00732421875t0.084228515625,0.00732421875q0.087890625,0.0146484375,0.230712890625,0.069580078125t0.142822265625,0.172119140625l0,0.0146484375q-0.029296875,0.05859375-0.03662109375,0.120849609375t-0.03662109375,0.106201171875l0.0146484375-0.0146484375q-0.087890625,0.22705078125-0.142822265625,0.3662109375t-0.120849609375,0.223388671875t-0.164794921875,0.120849609375t-0.281982421875,0.03662109375q-0.029296875,0-0.1025390625-0.00732421875t-0.157470703125-0.029296875t-0.142822265625-0.05859375t-0.05859375-0.10986328125z M221.40368652344,29.51171875q0-0.40283203125,0.076904296875-0.860595703125t0.263671875-0.838623046875t0.516357421875-0.6298828125t0.84228515625-0.2490234375q0.34423828125,0,0.66650390625,0.113525390625t0.60791015625,0.311279296875q0.087890625-0.146484375,0.2783203125-0.179443359375t0.3369140625-0.032958984375q0.05859375,0,0.164794921875,0.00732421875t0.208740234375,0.0439453125t0.179443359375,0.087890625t0.091552734375,0.146484375q0.05859375,0.5126953125,0.08056640625,1.021728515625t0.06591796875,1.014404296875q0.0732421875,0.94482421875,0.22705078125,1.86767578125t0.15380859375,1.86767578125q0,0.44677734375-0.040283203125,0.966796875t-0.21240234375,0.963134765625t-0.501708984375,0.736083984375t-0.91552734375,0.29296875q-0.52734375,0-0.809326171875-0.186767578125t-0.509033203125-0.626220703125q0.0146484375-0.146484375,0.186767578125-0.194091796875t0.296630859375-0.047607421875q0.1171875,0,0.238037109375,0.02197265625t0.194091796875,0.0732421875l0.18310546875,0.1171875q0.27099609375-0.556640625,0.32958984375-1.2158203125t0.05859375-1.2744140625q0-0.5126953125-0.05126953125-1.014404296875t-0.1025390625-1.007080078125q-0.5126953125,0.93017578125-1.56005859375,0.93017578125q-0.4833984375,0-0.787353515625-0.205078125t-0.46875-0.52001953125t-0.22705078125-0.71044921875t-0.062255859375-0.791015625z M222.30456542969,29.57763671875q0,0.18310546875,0.0146484375,0.472412109375t0.076904296875,0.567626953125t0.179443359375,0.479736328125t0.32958984375,0.201416015625q0.40283203125,0,0.63720703125-0.31494140625t0.369873046875-0.750732421875t0.216064453125-0.90087890625t0.205078125-0.765380859375q-0.0146484375-0.1025390625-0.0146484375-0.201416015625l0-0.201416015625q-0.16845703125-0.31494140625-0.49072265625-0.545654296875t-0.66650390625-0.311279296875q-0.0439453125-0.00732421875-0.08056640625-0.00732421875q-0.205078125,0-0.3369140625,0.24169921875q-0.16845703125,0.29296875-0.263671875,0.699462890625t-0.135498046875,0.802001953125t-0.040283203125,0.53466796875z M227.67080078125,29.8046875l0-0.21240234375q0-0.263671875,0.0146484375-0.498046875q0.0146484375-0.32958984375,0.0146484375-0.5419921875q0-0.1171875,0.0146484375-0.267333984375t0.0732421875-0.238037109375q0.0732421875-0.0732421875,0.172119140625-0.150146484375t0.216064453125-0.076904296875q0.37353515625,0,0.5859375,0.084228515625t0.22705078125,0.347900390625l0.029296875,0.22705078125q0.1318359375-0.31494140625,0.3515625-0.780029296875t0.509033203125-0.88623046875t0.65185546875-0.7177734375t0.765380859375-0.296630859375q0.37353515625,0,0.615234375,0.3515625t0.384521484375,0.897216796875t0.201416015625,1.2158203125t0.08056640625,1.314697265625t0.029296875,1.175537109375t0.05126953125,0.802001953125q0.029296875,0.22705078125,0.098876953125,0.479736328125t0.069580078125,0.465087890625q0,0.05859375-0.084228515625,0.113525390625t-0.179443359375,0.091552734375t-0.194091796875,0.05859375t-0.142822265625,0.02197265625q-0.28564453125,0-0.406494140625-0.428466796875t-0.150146484375-1.072998046875t-0.029296875-1.395263671875t-0.05126953125-1.395263671875t-0.208740234375-1.072998046875t-0.501708984375-0.443115234375q-0.31494140625,0-0.65185546875,0.406494140625t-0.57861328125,1.080322265625q-0.234375,0.673828125-0.322265625,1.53076171875q-0.029296875,0.27099609375-0.029296875,0.5419921875q0,0.59326171875,0.12451171875,1.1865234375q0.0146484375,0.1025390625-0.084228515625,0.15380859375t-0.245361328125,0.08056640625t-0.296630859375,0.03662109375t-0.230712890625,0.00732421875q-0.28564453125,0-0.457763671875-0.201416015625t-0.267333984375-0.516357421875t-0.128173828125-0.706787109375t-0.040283203125-0.772705078125z M234.32609863281,27.87841796875q0-0.30029296875,0.17578125-0.516357421875t0.428466796875-0.3515625t0.552978515625-0.201416015625t0.556640625-0.06591796875q0.19775390625,0,0.52734375,0.05859375t0.64453125,0.17578125t0.545654296875,0.3076171875t0.230712890625,0.44677734375q0,0.1171875-0.087890625,0.208740234375t-0.18310546875,0.091552734375q-0.19775390625,0-0.35888671875-0.128173828125t-0.333251953125-0.27099609375t-0.377197265625-0.27099609375t-0.46142578125-0.128173828125t-0.465087890625,0.164794921875t-0.208740234375,0.435791015625q0,0.44677734375,0.31494140625,0.875244140625t0.692138671875,0.90087890625t0.692138671875,0.992431640625t0.31494140625,1.14990234375q0,0.27099609375-0.113525390625,0.457763671875t-0.30029296875,0.303955078125t-0.421142578125,0.179443359375t-0.4541015625,0.062255859375q-0.24169921875,0-0.56396484375-0.113525390625t-0.60791015625-0.30029296875t-0.479736328125-0.435791015625t-0.194091796875-0.52001953125q0-0.1318359375,0.186767578125-0.16845703125t0.274658203125-0.03662109375q0.0439453125,0,0.135498046875,0.029296875t0.179443359375,0.06591796875t0.157470703125,0.08056640625t0.054931640625,0.09521484375q0.0732421875,0.087890625,0.223388671875,0.260009765625t0.30029296875,0.2783203125t0.263671875,0.076904296875t0.113525390625-0.32958984375q0-0.5712890625-0.3076171875-1.051025390625t-0.670166015625-0.9375t-0.670166015625-0.908203125t-0.3076171875-0.963134765625z"/></svg>
