<?xml version="1.0" encoding="UTF-8"?>
<svg xmlns="http://www.w3.org/2000/svg" xmlns:xlink="http://www.w3.org/1999/xlink" width="60px" height="60px" viewBox="0 0 60 60" version="1.1">
<g id="surface1">
<path style=" stroke:none;fill-rule:nonzero;fill:rgb(0%,0%,0%);fill-opacity:1;" d="M 51.308594 3.75 L 8.691406 3.75 C 5.503906 3.75 2.917969 6.335938 2.917969 9.527344 L 2.917969 50.472656 C 2.917969 53.664062 5.503906 56.25 8.691406 56.25 L 51.308594 56.25 C 54.496094 56.25 57.082031 53.664062 57.082031 50.472656 L 57.085938 50.472656 L 57.085938 9.527344 C 57.085938 6.335938 54.496094 3.75 51.308594 3.75 Z M 6.25 50.472656 L 6.25 42.480469 L 18.050781 25.601562 C 18.414062 25.082031 18.921875 24.769531 19.480469 24.71875 C 20.042969 24.664062 20.59375 24.890625 21.042969 25.339844 L 31.410156 35.707031 L 18.597656 52.917969 L 8.691406 52.917969 C 7.34375 52.917969 6.25 51.824219 6.25 50.472656 Z M 53.75 50.472656 C 53.75 51.824219 52.65625 52.917969 51.308594 52.917969 L 20.675781 52.917969 L 35.453125 33.066406 C 35.839844 32.546875 36.378906 32.234375 36.976562 32.179688 C 37.578125 32.128906 38.160156 32.34375 38.628906 32.785156 L 47.742188 41.386719 C 48.074219 41.699219 48.605469 41.683594 48.921875 41.351562 C 49.238281 41.015625 49.21875 40.488281 48.886719 40.171875 L 39.773438 31.574219 C 38.953125 30.800781 37.902344 30.425781 36.828125 30.519531 C 35.753906 30.613281 34.789062 31.164062 34.117188 32.070312 L 32.414062 34.355469 L 22.222656 24.160156 C 21.417969 23.355469 20.390625 22.96875 19.332031 23.058594 C 18.273438 23.152344 17.332031 23.714844 16.683594 24.648438 L 6.25 39.574219 L 6.25 9.527344 C 6.25 8.175781 7.34375 7.082031 8.691406 7.082031 L 51.308594 7.082031 C 52.65625 7.082031 53.75 8.175781 53.75 9.527344 Z M 53.75 50.472656 "/>
<path style=" stroke:none;fill-rule:nonzero;fill:rgb(0%,0%,0%);fill-opacity:1;" d="M 50.898438 42.066406 C 50.5625 41.75 50.035156 41.765625 49.71875 42.097656 C 49.402344 42.433594 49.417969 42.960938 49.753906 43.277344 L 50.75 44.21875 C 50.910156 44.371094 51.113281 44.445312 51.320312 44.445312 C 51.542969 44.445312 51.761719 44.359375 51.925781 44.183594 C 52.242188 43.851562 52.226562 43.324219 51.894531 43.007812 Z M 50.898438 42.066406 "/>
<path style=" stroke:none;fill-rule:nonzero;fill:rgb(0%,0%,0%);fill-opacity:1;" d="M 37.308594 10.308594 C 33.335938 10.308594 30.109375 13.539062 30.109375 17.511719 C 30.109375 21.480469 33.335938 24.710938 37.308594 24.710938 C 41.277344 24.710938 44.511719 21.480469 44.511719 17.511719 C 44.511719 13.539062 41.28125 10.308594 37.308594 10.308594 Z M 37.308594 23.046875 C 34.257812 23.046875 31.773438 20.5625 31.773438 17.511719 C 31.773438 14.460938 34.257812 11.976562 37.308594 11.976562 C 40.363281 11.976562 42.84375 14.460938 42.84375 17.511719 C 42.84375 20.5625 40.363281 23.046875 37.308594 23.046875 Z M 37.308594 23.046875 "/>
</g>
</svg>
