<svg width="0" height="0" class="hidden">
  <symbol xmlns="http://www.w3.org/2000/svg" viewBox="-0.5 0 25 25" id="search">
    <path d="M22 11.8201C22 9.84228 21.4135 7.90885 20.3147 6.26436C19.2159 4.61987 17.6542 3.33813 15.8269 2.58126C13.9996 1.82438 11.9889 1.62637 10.0491 2.01223C8.10927 2.39808 6.32748 3.35052 4.92896 4.74904C3.53043 6.14757 2.578 7.92935 2.19214 9.86916C1.80629 11.809 2.00436 13.8197 2.76123 15.6469C3.51811 17.4742 4.79985 19.036 6.44434 20.1348C8.08883 21.2336 10.0222 21.8201 12 21.8201" stroke="#000000" stroke-width="1.5" stroke-linecap="round" stroke-linejoin="round"></path>
    <path d="M2 11.8201H22" stroke="#000000" stroke-width="1.5" stroke-linecap="round" stroke-linejoin="round"></path>
    <path d="M12 21.8201C10.07 21.8201 8.5 17.3401 8.5 11.8201C8.5 6.30007 10.07 1.82007 12 1.82007C13.93 1.82007 15.5 6.30007 15.5 11.8201" stroke="#000000" stroke-width="1.5" stroke-linecap="round" stroke-linejoin="round"></path>
    <path d="M18.3691 21.6901C20.3021 21.6901 21.8691 20.1231 21.8691 18.1901C21.8691 16.2571 20.3021 14.6901 18.3691 14.6901C16.4361 14.6901 14.8691 16.2571 14.8691 18.1901C14.8691 20.1231 16.4361 21.6901 18.3691 21.6901Z" stroke="#000000" stroke-width="1.5" stroke-linecap="round" stroke-linejoin="round"></path>
    <path d="M22.9998 22.8202L20.8398 20.6702" stroke="#000000" stroke-width="1.5" stroke-linecap="round" stroke-linejoin="round"></path>
  </symbol>
  <symbol xmlns="http://www.w3.org/2000/svg" viewBox="0 0 24 24" id="chevron">
    <path d="M17 18L12 13L7 18M17 11L12 6L7 11" stroke="#000000" stroke-width="2" stroke-linecap="round" stroke-linejoin="round"></path>
  </symbol>
  <symbol xmlns="http://www.w3.org/2000/svg" viewBox="0 0 24 24" id="settings">
    <rect width="24" height="24" fill="white"></rect>
    <path d="M13.5 2L13.9961 1.93798C13.9649 1.68777 13.7522 1.5 13.5 1.5V2ZM10.5 2V1.5C10.2478 1.5 10.0351 1.68777 10.0039 1.93798L10.5 2ZM13.7747 4.19754L13.2786 4.25955C13.3047 4.46849 13.4589 4.63867 13.6642 4.68519L13.7747 4.19754ZM16.2617 5.22838L15.995 5.6513C16.1731 5.76362 16.4024 5.75233 16.5687 5.62306L16.2617 5.22838ZM18.0104 3.86826L18.364 3.51471C18.1857 3.3364 17.9025 3.31877 17.7034 3.47359L18.0104 3.86826ZM20.1317 5.98958L20.5264 6.29655C20.6812 6.09751 20.6636 5.81434 20.4853 5.63603L20.1317 5.98958ZM18.7716 7.73831L18.3769 7.43134C18.2477 7.59754 18.2364 7.82693 18.3487 8.00503L18.7716 7.73831ZM19.8025 10.2253L19.3148 10.3358C19.3613 10.5411 19.5315 10.6953 19.7404 10.7214L19.8025 10.2253ZM22 10.5H22.5C22.5 10.2478 22.3122 10.0351 22.062 10.0039L22 10.5ZM22 13.5L22.062 13.9961C22.3122 13.9649 22.5 13.7522 22.5 13.5H22ZM19.8025 13.7747L19.7404 13.2786C19.5315 13.3047 19.3613 13.4589 19.3148 13.6642L19.8025 13.7747ZM18.7716 16.2617L18.3487 15.995C18.2364 16.1731 18.2477 16.4025 18.3769 16.5687L18.7716 16.2617ZM20.1317 18.0104L20.4853 18.364C20.6636 18.1857 20.6812 17.9025 20.5264 17.7034L20.1317 18.0104ZM18.0104 20.1317L17.7034 20.5264C17.9025 20.6812 18.1857 20.6636 18.364 20.4853L18.0104 20.1317ZM16.2617 18.7716L16.5687 18.3769C16.4024 18.2477 16.1731 18.2364 15.995 18.3487L16.2617 18.7716ZM13.7747 19.8025L13.6642 19.3148C13.4589 19.3613 13.3047 19.5315 13.2786 19.7404L13.7747 19.8025ZM13.5 22V22.5C13.7522 22.5 13.9649 22.3122 13.9961 22.062L13.5 22ZM10.5 22L10.0039 22.062C10.0351 22.3122 10.2478 22.5 10.5 22.5V22ZM10.2253 19.8025L10.7214 19.7404C10.6953 19.5315 10.5411 19.3613 10.3358 19.3148L10.2253 19.8025ZM7.73832 18.7716L8.00504 18.3487C7.82694 18.2364 7.59756 18.2477 7.43135 18.3769L7.73832 18.7716ZM5.98959 20.1317L5.63604 20.4853C5.81435 20.6636 6.09752 20.6812 6.29656 20.5264L5.98959 20.1317ZM3.86827 18.0104L3.4736 17.7034C3.31878 17.9025 3.33641 18.1857 3.51472 18.364L3.86827 18.0104ZM5.22839 16.2617L5.62307 16.5687C5.75234 16.4025 5.76363 16.1731 5.65131 15.995L5.22839 16.2617ZM4.19754 13.7747L4.68519 13.6642C4.63867 13.4589 4.46849 13.3047 4.25955 13.2786L4.19754 13.7747ZM2 13.5H1.5C1.5 13.7522 1.68777 13.9649 1.93798 13.9961L2 13.5ZM2 10.5L1.93798 10.0039C1.68777 10.0351 1.5 10.2478 1.5 10.5H2ZM4.19754 10.2253L4.25955 10.7214C4.46849 10.6953 4.63867 10.5411 4.68519 10.3358L4.19754 10.2253ZM5.22839 7.73831L5.65131 8.00503C5.76363 7.82693 5.75234 7.59755 5.62307 7.43134L5.22839 7.73831ZM3.86827 5.98959L3.51472 5.63603C3.33641 5.81434 3.31878 6.09751 3.47359 6.29656L3.86827 5.98959ZM5.98959 3.86827L6.29656 3.47359C6.09752 3.31878 5.81434 3.33641 5.63604 3.51471L5.98959 3.86827ZM7.73832 5.22839L7.43135 5.62306C7.59755 5.75233 7.82694 5.76363 8.00504 5.6513L7.73832 5.22839ZM10.2253 4.19754L10.3358 4.68519C10.5411 4.63867 10.6953 4.46849 10.7214 4.25955L10.2253 4.19754ZM13.5 1.5H10.5V2.5H13.5V1.5ZM14.2708 4.13552L13.9961 1.93798L13.0039 2.06202L13.2786 4.25955L14.2708 4.13552ZM16.5284 4.80547C15.7279 4.30059 14.8369 3.92545 13.8851 3.70989L13.6642 4.68519C14.503 4.87517 15.2886 5.20583 15.995 5.6513L16.5284 4.80547ZM16.5687 5.62306L18.3174 4.26294L17.7034 3.47359L15.9547 4.83371L16.5687 5.62306ZM17.6569 4.22182L19.7782 6.34314L20.4853 5.63603L18.364 3.51471L17.6569 4.22182ZM19.7371 5.68261L18.3769 7.43134L19.1663 8.04528L20.5264 6.29655L19.7371 5.68261ZM20.2901 10.1149C20.0746 9.16313 19.6994 8.27213 19.1945 7.47158L18.3487 8.00503C18.7942 8.71138 19.1248 9.49695 19.3148 10.3358L20.2901 10.1149ZM22.062 10.0039L19.8645 9.72917L19.7404 10.7214L21.938 10.9961L22.062 10.0039ZM22.5 13.5V10.5H21.5V13.5H22.5ZM19.8645 14.2708L22.062 13.9961L21.938 13.0039L19.7404 13.2786L19.8645 14.2708ZM19.1945 16.5284C19.6994 15.7279 20.0746 14.8369 20.2901 13.8851L19.3148 13.6642C19.1248 14.503 18.7942 15.2886 18.3487 15.995L19.1945 16.5284ZM20.5264 17.7034L19.1663 15.9547L18.3769 16.5687L19.7371 18.3174L20.5264 17.7034ZM18.364 20.4853L20.4853 18.364L19.7782 17.6569L17.6569 19.7782L18.364 20.4853ZM15.9547 19.1663L17.7034 20.5264L18.3174 19.7371L16.5687 18.3769L15.9547 19.1663ZM13.8851 20.2901C14.8369 20.0746 15.7279 19.6994 16.5284 19.1945L15.995 18.3487C15.2886 18.7942 14.503 19.1248 13.6642 19.3148L13.8851 20.2901ZM13.9961 22.062L14.2708 19.8645L13.2786 19.7404L13.0039 21.938L13.9961 22.062ZM10.5 22.5H13.5V21.5H10.5V22.5ZM9.72917 19.8645L10.0039 22.062L10.9961 21.938L10.7214 19.7404L9.72917 19.8645ZM7.4716 19.1945C8.27214 19.6994 9.16314 20.0746 10.1149 20.2901L10.3358 19.3148C9.49696 19.1248 8.71139 18.7942 8.00504 18.3487L7.4716 19.1945ZM6.29656 20.5264L8.04529 19.1663L7.43135 18.3769L5.68262 19.7371L6.29656 20.5264ZM3.51472 18.364L5.63604 20.4853L6.34315 19.7782L4.22183 17.6569L3.51472 18.364ZM4.83372 15.9547L3.4736 17.7034L4.26295 18.3174L5.62307 16.5687L4.83372 15.9547ZM3.70989 13.8851C3.92545 14.8369 4.30059 15.7279 4.80547 16.5284L5.65131 15.995C5.20584 15.2886 4.87517 14.503 4.68519 13.6642L3.70989 13.8851ZM1.93798 13.9961L4.13552 14.2708L4.25955 13.2786L2.06202 13.0039L1.93798 13.9961ZM1.5 10.5V13.5H2.5V10.5H1.5ZM4.13552 9.72917L1.93798 10.0039L2.06202 10.9961L4.25955 10.7214L4.13552 9.72917ZM4.80547 7.47159C4.30059 8.27213 3.92545 9.16313 3.70989 10.1149L4.68519 10.3358C4.87517 9.49696 5.20583 8.71138 5.65131 8.00503L4.80547 7.47159ZM3.47359 6.29656L4.83371 8.04528L5.62307 7.43134L4.26295 5.68262L3.47359 6.29656ZM5.63604 3.51471L3.51472 5.63603L4.22182 6.34314L6.34314 4.22182L5.63604 3.51471ZM8.04529 4.83371L6.29656 3.47359L5.68262 4.26294L7.43135 5.62306L8.04529 4.83371ZM10.1149 3.70989C9.16313 3.92545 8.27214 4.30059 7.4716 4.80547L8.00504 5.6513C8.71139 5.20583 9.49696 4.87517 10.3358 4.68519L10.1149 3.70989ZM10.0039 1.93798L9.72917 4.13552L10.7214 4.25955L10.9961 2.06202L10.0039 1.93798Z" fill="#000000"></path>
    <circle cx="12" cy="12" r="4" stroke="#000000" stroke-linejoin="round"></circle>
  </symbol>
  <symbol version="1.1" xmlns="http://www.w3.org/2000/svg" viewBox="0 0 32 32" id="tick">
    <title>tick-checkbox</title>
    <path d="M0 26.016v-20q0-2.496 1.76-4.256t4.256-1.76h20q2.464 0 4.224 1.76t1.76 4.256v20q0 2.496-1.76 4.224t-4.224 1.76h-20q-2.496 0-4.256-1.76t-1.76-4.224zM4 26.016q0 0.832 0.576 1.408t1.44 0.576h20q0.8 0 1.408-0.576t0.576-1.408v-20q0-0.832-0.576-1.408t-1.408-0.608h-20q-0.832 0-1.44 0.608t-0.576 1.408v20zM7.584 16q0-0.832 0.608-1.408t1.408-0.576 1.408 0.576l2.848 2.816 7.072-7.040q0.576-0.608 1.408-0.608t1.408 0.608 0.608 1.408-0.608 1.408l-8.48 8.48q-0.576 0.608-1.408 0.608t-1.408-0.608l-4.256-4.256q-0.608-0.576-0.608-1.408z"></path>
  </symbol>
  <symbol xmlns="http://www.w3.org/2000/svg" viewBox="0 0 24 24" id="line">
    <path d="M3 6H10M3 10H10M3 14H10M3 18H10M14 6L21 6.0006M14 10L21 10.0006M14 14L21 14.0006M14 18L21 18.0006" stroke="#000000" stroke-width="2" stroke-linecap="round" stroke-linejoin="round"></path>
  </symbol>
  <symbol id="computer" xmlns="http://www.w3.org/2000/svg" viewBox="0 0 24 24">
    <defs></defs>
    <line x1="8.18" y1="22.5" x2="9.14" y2="17.73"></line>
    <line x1="5.32" y1="22.5" x2="18.68" y2="22.5"></line>
    <rect x="1.5" y="1.5" width="21" height="16.23" rx="1.91"></rect>
    <line x1="15.75" y1="22.5" x2="14.8" y2="17.73"></line>
    <line x1="1.5" y1="13.91" x2="22.5" y2="13.91"></line>
  </symbol>
  <symbol xmlns="http://www.w3.org/2000/svg" viewBox="0 0 24 24" id="clock">
    <path d="M3 5.5L5 3.5M21 5.5L19 3.5M9 12.5L11 14.5L15 10.5M20 12.5C20 16.9183 16.4183 20.5 12 20.5C7.58172 20.5 4 16.9183 4 12.5C4 8.08172 7.58172 4.5 12 4.5C16.4183 4.5 20 8.08172 20 12.5Z" stroke="#000000" stroke-width="2" stroke-linecap="round" stroke-linejoin="round"></path>
  </symbol>
  <symbol xmlns="http://www.w3.org/2000/svg" viewBox="0 0 48 48" id="easy">
    <defs></defs>
    <path d="M31.5227,19.2487v5.3286A1.7744,1.7744,0,0,1,29.75,26.3535h0a1.7743,1.7743,0,0,1-1.7724-1.7762v-.59"></path>
    <path d="M26.3543,24.5773v2.3978a1.7762,1.7762,0,0,1-1.7762,1.7762h0a1.77,1.77,0,0,1-1.2559-.52"></path>
    <path d="M26.3543,21.6465v2.9308a1.7762,1.7762,0,0,1-1.7762,1.7762h0a1.7763,1.7763,0,0,1-1.7762-1.7762V21.6465"></path>
    <path d="M18.1471,25.9564a1.9983,1.9983,0,0,0,1.4609.3971h.3985a1.1756,1.1756,0,0,0,1.1742-1.1768h0A1.1755,1.1755,0,0,0,20.0065,24H19.21a1.1754,1.1754,0,0,1-1.1742-1.1767h0A1.1755,1.1755,0,0,1,19.21,21.6465h.3985a1.9975,1.9975,0,0,1,1.4608.3972"></path>
    <path d="M11.32,25.4571a1.7754,1.7754,0,0,1-1.5433.8964h0A1.7762,1.7762,0,0,1,8,24.5773V23.4227a1.7762,1.7762,0,0,1,1.7762-1.7762h0a1.7762,1.7762,0,0,1,1.7762,1.7762V24H8"></path>
    <path d="M36.4935,25.4571a1.7755,1.7755,0,0,1-1.5433.8964h0a1.7762,1.7762,0,0,1-1.7762-1.7762V23.4227A1.7762,1.7762,0,0,1,34.95,21.6465h0a1.7762,1.7762,0,0,1,1.7762,1.7762V24H33.174"></path>
    <path d="M38.8455,20.1812v5.2842a.8881.8881,0,0,0,.8881.8881H40"></path>
    <line x1="37.913" y1="21.6465" x2="39.778" y2="21.6465"></line>
    <path d="M16.54,24.5773a1.7762,1.7762,0,0,1-1.7762,1.7762h0a1.7763,1.7763,0,0,1-1.7762-1.7762V23.4227a1.7763,1.7763,0,0,1,1.7762-1.7762h0A1.7762,1.7762,0,0,1,16.54,23.4227"></path>
    <line x1="16.5403" y1="26.3535" x2="16.5403" y2="21.6465"></line>
    <rect x="5.5" y="5.5" width="37" height="37" rx="2"></rect>
  </symbol>
  <symbol id="growth" version="1.1" xmlns="http://www.w3.org/2000/svg" xmlnsCc="http://creativecommons.org/ns#" xmlnsDc="http://purl.org/dc/elements/1.1/" xmlnsInkscape="http://www.inkscape.org/namespaces/inkscape" xmlnsRdf="http://www.w3.org/1999/02/22-rdf-syntax-ns#" xmlnsSodipodi="http://sodipodi.sourceforge.net/DTD/sodipodi-0.dtd" xmlnsSvg="http://www.w3.org/2000/svg" viewBox="0 0 6.3500002 6.3500002">
    <defs id="defs1970"></defs>
    <g id="layer1">
      <path d="m 0.26485,5.8204456 a 0.2645835,0.2645835 0 0 0 -0.26563,0.26563 0.2645835,0.2645835 0 0 0 0.26563,0.26367 h 5.82031 a 0.2645835,0.2645835 0 0 0 0.26562,-0.26367 0.2645835,0.2645835 0 0 0 -0.26562,-0.26563 z" id="path726"></path>
      <path d="m 1.16328,3.9688856 c -0.34722,0 -0.63476,0.28754 -0.63476,0.63477 v 1.48242 a 0.26460996,0.26460996 0 0 0 0.26562,0.26367 h 1.0586 a 0.26460996,0.26460996 0 0 0 0.26367,-0.26367 v -1.48242 c 0,-0.34723 -0.28755,-0.63477 -0.63477,-0.63477 z" id="path728"></path>
      <path d="m 3.0168,3.0684956 c -0.34722,0 -0.63477,0.28753 -0.63477,0.63477 v 2.38281 a 0.26460996,0.26460996 0 0 0 0.26367,0.26367 h 1.0586 a 0.26460996,0.26460996 0 0 0 0.26367,-0.26367 v -2.38281 c 0,-0.34724 -0.28755,-0.63477 -0.63477,-0.63477 z" id="path730"></path>
      <path d="m 4.86836,2.2755256 c -0.34722,0 -0.63477,0.28754 -0.63477,0.63477 v 3.17578 a 0.26460996,0.26460996 0 0 0 0.26368,0.26367 h 1.05859 a 0.26460996,0.26460996 0 0 0 0.26563,-0.26367 v -3.17578 c 0,-0.34723 -0.2895,-0.63477 -0.63672,-0.63477 z" id="path732"></path>
      <path d="M 4.6205208,2.5237e-4 A 0.2645835,0.2645835 0 0 0 4.3564534,0.26380219 0.2645835,0.2645835 0 0 0 4.6205208,0.52941905 H 4.8938883 C 3.3974791,1.8159538 1.8306324,2.6151331 0.2161369,2.9142865 A 0.2645835,0.2645835 0 0 0 0.0052984,3.2227949 0.2645835,0.2645835 0 0 0 0.3117388,3.4357016 C 2.050091,3.1136013 3.722697,2.2498105 5.2923138,0.88753671 V 1.1991456 A 0.2645835,0.2645835 0 0 0 5.5558626,1.4647625 0.2645835,0.2645835 0 0 0 5.8214805,1.1991456 V 0.41986501 C 5.8215308,0.19150501 5.62816,2.0237e-4 5.3998008,2.5237e-4 Z" id="path734"></path>
    </g>
  </symbol>
  <symbol xmlns="http://www.w3.org/2000/svg" viewBox="0 0 512 512" id="logo">
    <title>ionicons-v5_logos</title>
    <path d="M410.66,180.72h0q-7.67-2.62-15.45-4.88,1.29-5.25,2.38-10.56c11.7-56.9,4.05-102.74-22.06-117.83-25-14.48-66,.61-107.36,36.69q-6.1,5.34-11.95,11-3.9-3.76-8-7.36c-43.35-38.58-86.8-54.83-112.88-39.69-25,14.51-32.43,57.6-21.9,111.53q1.58,8,3.55,15.93c-6.15,1.75-12.09,3.62-17.77,5.6C48.46,198.9,16,226.73,16,255.59c0,29.82,34.84,59.72,87.77,77.85q6.44,2.19,13,4.07Q114.64,346,113,354.68c-10,53-2.2,95.07,22.75,109.49,25.77,14.89,69-.41,111.14-37.31q5-4.38,10-9.25,6.32,6.11,13,11.86c40.8,35.18,81.09,49.39,106,34.93,25.75-14.94,34.12-60.14,23.25-115.13q-1.25-6.3-2.88-12.86,4.56-1.35,8.93-2.79c55-18.27,90.83-47.81,90.83-78C496,226.62,462.5,198.61,410.66,180.72Zm-129-81.08c35.43-30.91,68.55-43.11,83.65-34.39h0c16.07,9.29,22.32,46.75,12.22,95.88q-1,4.8-2.16,9.57a487.83,487.83,0,0,0-64.18-10.16,481.27,481.27,0,0,0-40.57-50.75Q276,104.57,281.64,99.64ZM157.73,280.25q6.51,12.6,13.61,24.89,7.23,12.54,15.07,24.71a435.28,435.28,0,0,1-44.24-7.13C146.41,309,151.63,294.75,157.73,280.25Zm0-48.33c-6-14.19-11.08-28.15-15.25-41.63,13.7-3.07,28.3-5.58,43.52-7.48q-7.65,11.94-14.72,24.23T157.7,231.92Zm10.9,24.17q9.48-19.77,20.42-38.78h0q10.93-19,23.27-37.13c14.28-1.08,28.92-1.65,43.71-1.65s29.52.57,43.79,1.66q12.21,18.09,23.13,37t20.69,38.6Q334,275.63,323,294.73h0q-10.91,19-23,37.24c-14.25,1-29,1.55-44,1.55s-29.47-.47-43.46-1.38q-12.43-18.19-23.46-37.29T168.6,256.09ZM340.75,305q7.25-12.58,13.92-25.49h0a440.41,440.41,0,0,1,16.12,42.32A434.44,434.44,0,0,1,326,329.48Q333.62,317.39,340.75,305Zm13.72-73.07q-6.64-12.65-13.81-25h0q-7-12.18-14.59-24.06c15.31,1.94,30,4.52,43.77,7.67A439.89,439.89,0,0,1,354.47,231.93ZM256.23,124.48h0a439.75,439.75,0,0,1,28.25,34.18q-28.35-1.35-56.74,0C237.07,146.32,246.62,134.87,256.23,124.48ZM145.66,65.86c16.06-9.32,51.57,4,89,37.27,2.39,2.13,4.8,4.36,7.2,6.67A491.37,491.37,0,0,0,201,160.51a499.12,499.12,0,0,0-64.06,10q-1.83-7.36-3.3-14.82h0C124.59,109.46,130.58,74.61,145.66,65.86ZM122.25,317.71q-6-1.71-11.85-3.71c-23.4-8-42.73-18.44-56-29.81C42.52,274,36.5,263.83,36.5,255.59c0-17.51,26.06-39.85,69.52-55q8.19-2.85,16.52-5.21a493.54,493.54,0,0,0,23.4,60.75A502.46,502.46,0,0,0,122.25,317.71Zm111.13,93.67c-18.63,16.32-37.29,27.89-53.74,33.72h0c-14.78,5.23-26.55,5.38-33.66,1.27-15.14-8.75-21.44-42.54-12.85-87.86q1.53-8,3.5-16a480.85,480.85,0,0,0,64.69,9.39,501.2,501.2,0,0,0,41.2,51C239.54,405.83,236.49,408.65,233.38,411.38Zm23.42-23.22c-9.72-10.51-19.42-22.14-28.88-34.64q13.79.54,28.08.54c9.78,0,19.46-.21,29-.64A439.33,439.33,0,0,1,256.8,388.16Zm124.52,28.59c-2.86,15.44-8.61,25.74-15.72,29.86-15.13,8.78-47.48-2.63-82.36-32.72-4-3.44-8-7.13-12.07-11a484.54,484.54,0,0,0,40.23-51.2,477.84,477.84,0,0,0,65-10.05q1.47,5.94,2.6,11.64h0C383.81,377.58,384.5,399.56,381.32,416.75Zm17.4-102.64h0c-2.62.87-5.32,1.71-8.06,2.53a483.26,483.26,0,0,0-24.31-60.94,481.52,481.52,0,0,0,23.36-60.06c4.91,1.43,9.68,2.93,14.27,4.52,44.42,15.32,71.52,38,71.52,55.43C475.5,274.19,446.23,298.33,398.72,314.11Z"></path>
    <path d="M256,298.55a43,43,0,1,0-42.86-43A42.91,42.91,0,0,0,256,298.55Z"></path>
  </symbol>
  <symbol version="1.1" id="wordpress" xmlns="http://www.w3.org/2000/svg" xmlns:xlink="http://www.w3.org/1999/xlink" xml:space="preserve" viewBox="0 0 512 512">
    <g>
      <g>
        <g>
          <path d="M41.073,152.466c-1.425-3.903-5.074-6.551-9.226-6.696c-4.175-0.132-7.977,2.245-9.669,6.039
				C7.468,184.791,0.009,219.844,0.009,255.99c0,48.964,13.875,96.559,40.124,137.639c25.548,39.983,61.564,72.053,104.158,92.743
				c1.418,0.69,2.941,1.025,4.454,1.025c2.474,0,4.921-0.9,6.836-2.629c3.085-2.785,4.172-7.164,2.747-11.068L41.073,152.466z
				 M20.408,255.99c0-24.264,3.652-47.994,10.883-70.837l98.5,269.854C61.706,412.039,20.408,337.973,20.408,255.99z"></path>
          <path d="M345.376,480.765l-75.473-206.771c-1.471-4.028-5.3-6.702-9.58-6.702c-0.032,0-0.064,0-0.096,0
				c-4.318,0.041-8.143,2.796-9.55,6.88l-73.753,214.293c-0.907,2.633-0.697,5.523,0.581,7.998c1.278,2.475,3.513,4.319,6.185,5.106
				C207.225,508.492,231.555,512,256.001,512c29.053,0,57.656-4.883,85.015-14.514c2.907-1.024,5.195-3.307,6.226-6.212
				c1.031-2.905,0.692-6.121-0.922-8.747C345.897,481.836,345.594,481.272,345.376,480.765z M256.001,491.602
				c-18.944,0-37.814-2.291-56.238-6.818l60.841-176.773l63.36,173.59C301.937,488.241,279.126,491.602,256.001,491.602z"></path>
          <path d="M373.292,403.888c4.314,0,8.167-2.717,9.612-6.788l27.138-76.438c13.018-33.396,19.346-60.555,19.346-83.022
				c0-33.87-10.023-51.413-18.869-66.891c-0.054-0.094-0.109-0.189-0.167-0.283c-0.982-1.597-1.959-3.175-2.926-4.737
				c-10.569-17.065-19.698-31.803-19.698-47.571c0-16.074,11.879-33.424,31.069-33.424c0.317,0,0.804,0.041,1.321,0.085
				c0.404,0.034,0.805,0.067,1.209,0.093c4.329,0.281,8.341-2.2,10.038-6.179c1.696-3.979,0.699-8.597-2.492-11.52
				C381.573,23.87,320.18,0,256.001,0C169.666,0,89.708,43.127,42.115,115.365c-2.031,3.083-2.238,7.022-0.541,10.3
				c1.696,3.277,5.032,5.383,8.72,5.505c6.281,0.208,11.719,0.314,16.16,0.314c23.686,0,58.376-2.55,65.182-3.068
				c1.089,1.962,1.193,6.64,0.137,8.39c-2.685,0.3-14.319,1.553-26.893,2.209c-3.185,0.166-6.108,1.811-7.902,4.449
				c-1.794,2.636-2.251,5.961-1.235,8.984l80.48,239.565c1.395,4.153,5.286,6.951,9.668,6.951c0.004,0,0.008,0,0.011,0
				c4.386-0.005,8.278-2.813,9.665-6.973l53.793-161.323c0.738-2.214,0.696-4.613-0.122-6.8l-29.269-78.243
				c-1.416-3.782-4.928-6.373-8.959-6.608c-11.584-0.675-22.772-1.988-24.791-2.231c-0.919-1.946-0.707-6.437,0.377-8.368
				c7.002,0.524,42.099,3.064,64.336,3.064c23.69,0,58.382-2.55,65.184-3.068c1.09,1.961,1.196,6.641,0.139,8.389
				c-2.677,0.3-14.328,1.554-26.896,2.211c-3.193,0.166-6.123,1.821-7.916,4.469c-1.792,2.648-2.239,5.983-1.207,9.009
				l83.404,244.49c1.401,4.108,5.25,6.879,9.59,6.906C373.25,403.888,373.27,403.888,373.292,403.888z M303.83,158.48
				c8.698-0.708,14.988-1.437,15.375-1.483c11.726-1.386,19.321-12.743,18.061-27.005c-1.206-13.633-10.034-22.696-21.423-22.014
				c-0.065,0.004-0.133,0.008-0.198,0.013c-0.395,0.031-39.714,3.092-64.716,3.092c-23.477,0-63.551-3.063-63.953-3.093
				c-0.061-0.005-0.122-0.009-0.184-0.012c-11.588-0.695-20.652,9.083-21.489,23.228c-0.836,14.126,6.861,24.914,18.351,25.817
				c1.624,0.197,9.756,1.164,19.509,1.907l25.701,68.706l-43.012,128.993l-66.564-198.143c8.736-0.709,15.053-1.442,15.444-1.488
				c11.724-1.386,19.316-12.747,18.055-27.012c-1.207-13.629-10.032-22.697-21.419-22.007c-0.065,0.004-0.133,0.008-0.198,0.013
				c-0.374,0.031-35.884,2.795-60.879,3.071c44.547-57.103,112.646-90.666,185.71-90.666c51.924,0,101.868,16.978,142.757,48.187
				c-18.452,8.187-31.428,27.326-31.428,49.574c0,21.573,11.053,39.419,22.755,58.312c0.927,1.497,1.864,3.01,2.806,4.541
				c8.29,14.509,16.097,28.269,16.097,56.629c0,19.642-6.058,45.128-18.008,75.755c-0.038,0.098-0.074,0.196-0.109,0.295
				l-17.388,48.972L303.83,158.48z"></path>
          <path d="M480.631,133.175c-2.361-4.308-7.461-6.319-12.133-4.786c-4.669,1.538-7.577,6.188-6.917,11.059
				c1.038,7.665,1.566,15.707,1.566,23.901c0,26.824-5.711,53.594-17.971,84.247c-0.06,0.15-0.116,0.302-0.169,0.454l-75.07,217.056
				c-1.393,4.031-0.132,8.504,3.164,11.213c1.868,1.534,4.166,2.319,6.479,2.319c1.765,0,3.539-0.458,5.132-1.388
				c38.017-22.163,69.889-53.921,92.171-91.842c22.969-39.088,35.109-83.839,35.109-129.417
				C511.991,213.087,501.147,170.617,480.631,133.175z M399.158,443.029l65.051-188.086c9.331-23.375,15.137-44.781,17.736-65.726
				c6.365,21.591,9.65,44.116,9.65,66.774C491.595,329.489,456.798,398.762,399.158,443.029z"></path>
        </g>
      </g>
    </g>
    <g>
      <g>
        <path d="M262.286,369.734c-5.342-1.782-11.119,1.108-12.901,6.451l-1.36,4.079c-1.781,5.343,1.108,11.119,6.451,12.901
			c1.07,0.357,2.157,0.526,3.226,0.526c4.27,0,8.25-2.703,9.675-6.977l1.36-4.079C270.518,377.292,267.629,371.516,262.286,369.734z
			"></path>
      </g>
    </g>
    <g>
      <g>
        <path d="M249.707,407.472c-5.344-1.786-11.119,1.108-12.901,6.45l-16.999,50.996c-1.781,5.343,1.108,11.119,6.451,12.9
			c1.07,0.358,2.157,0.527,3.226,0.527c4.27,0,8.25-2.703,9.675-6.977l16.998-50.996
			C257.939,415.029,255.05,409.253,249.707,407.472z"></path>
      </g>
    </g>
  </symbol>
  <symbol version="1.1" id="snap" xmlns="http://www.w3.org/2000/svg" xmlns:xlink="http://www.w3.org/1999/xlink" enable-background="new 0 0 72 72" xml:space="preserve" viewBox="0 0 72 72">
    <g>
      <path d="M61.568,4.5H10.432C6.604,4.5,3.5,7.604,3.5,11.432v49.136c0,3.828,3.104,6.933,6.932,6.933h51.136
		c3.828,0,6.932-3.104,6.932-6.933h0.001V11.432C68.501,7.604,65.396,4.5,61.568,4.5z M7.5,60.568v-9.591l14.159-20.253
		c0.437-0.625,1.046-1.002,1.716-1.061c0.677-0.067,1.337,0.206,1.876,0.745l12.44,12.439L22.319,63.501H10.432
		C8.813,63.501,7.5,62.188,7.5,60.568z M64.501,60.568c0,1.619-1.313,2.933-2.933,2.933H24.811l17.733-23.823
		c0.464-0.621,1.112-0.998,1.828-1.061c0.722-0.061,1.419,0.195,1.981,0.727l10.938,10.318c0.4,0.379,1.034,0.359,1.414-0.041
		c0.379-0.402,0.359-1.035-0.041-1.414L47.727,37.889c-0.984-0.928-2.242-1.38-3.531-1.264c-1.291,0.113-2.447,0.773-3.256,1.859
		l-2.041,2.742L26.666,28.994c-0.966-0.966-2.196-1.432-3.466-1.323c-1.27,0.111-2.4,0.789-3.18,1.907L7.5,47.487V11.432
		C7.5,9.813,8.813,8.5,10.432,8.5h51.136c1.619,0,2.932,1.313,2.932,2.932h0.001V60.568z"></path>
      <path d="M61.076,50.48c-0.401-0.379-1.035-0.36-1.413,0.039c-0.38,0.402-0.361,1.035,0.04,1.414l1.195,1.129
		c0.193,0.182,0.44,0.273,0.687,0.273c0.267,0,0.53-0.105,0.726-0.314c0.381-0.399,0.361-1.033-0.039-1.412L61.076,50.48z"></path>
      <path d="M44.771,12.372c-4.766,0-8.642,3.876-8.642,8.641c0,4.765,3.876,8.642,8.642,8.642c4.764,0,8.642-3.877,8.642-8.642
		C53.413,16.248,49.536,12.372,44.771,12.372z M44.771,27.656c-3.662,0-6.642-2.979-6.642-6.642s2.979-6.641,6.642-6.641
		s6.642,2.978,6.642,6.641S48.434,27.656,44.771,27.656z"></path>
    </g>
  </symbol>
</svg>